<?xml version="1.0" encoding="UTF-8" standalone="no"?>
<!DOCTYPE svg PUBLIC "-//W3C//DTD SVG 1.1//EN"
 "http://www.w3.org/Graphics/SVG/1.1/DTD/svg11.dtd">
<!-- Generated by graphviz version 2.38.0 (20140413.2041)
 -->
<!-- Title: registration Pages: 1 -->
<svg width="877pt" height="93pt"
 viewBox="0.00 0.00 876.60 93.00" xmlns="http://www.w3.org/2000/svg" xmlns:xlink="http://www.w3.org/1999/xlink">
<g id="graph0" class="graph" transform="scale(1 1) rotate(0) translate(4 89)">
<title>registration</title>
<polygon fill="white" stroke="none" points="-4,4 -4,-89 872.595,-89 872.595,4 -4,4"/>
<!-- start -->
<g id="node1" class="node"><title>start</title>
<ellipse fill="none" stroke="black" cx="27.2976" cy="-34" rx="27.0966" ry="27.0966"/>
<text text-anchor="middle" x="27.2976" y="-30.3" font-family="Times,serif" font-size="14.00">Start</text>
</g>
<!-- saved -->
<g id="node2" class="node"><title>saved</title>
<polygon fill="none" stroke="black" points="217.595,-52 163.595,-52 163.595,-16 217.595,-16 217.595,-52"/>
<text text-anchor="middle" x="190.595" y="-30.3" font-family="Times,serif" font-size="14.00">Saved</text>
</g>
<!-- start&#45;&gt;saved -->
<g id="edge1" class="edge"><title>start&#45;&gt;saved</title>
<path fill="none" stroke="black" d="M54.9326,-34C81.8265,-34 123.551,-34 153.426,-34"/>
<polygon fill="black" stroke="black" points="153.456,-37.5001 163.456,-34 153.456,-30.5001 153.456,-37.5001"/>
<text text-anchor="middle" x="109.095" y="-37.8" font-family="Times,serif" font-size="14.00">Details saved</text>
</g>
<!-- saved&#45;&gt;saved -->
<g id="edge5" class="edge"><title>saved&#45;&gt;saved</title>
<path fill="none" stroke="black" d="M176.122,-52.1527C173.896,-61.5391 178.72,-70 190.595,-70 197.831,-70 202.45,-66.8581 204.449,-62.2796"/>
<polygon fill="black" stroke="black" points="207.952,-62.3475 205.068,-52.1527 200.965,-61.9208 207.952,-62.3475"/>
<text text-anchor="middle" x="190.595" y="-73.8" font-family="Times,serif" font-size="14.00">Edit</text>
</g>
<!-- invoice -->
<g id="node3" class="node"><title>invoice</title>
<polygon fill="none" stroke="black" points="517.595,-65 404.595,-65 404.595,-29 517.595,-29 517.595,-65"/>
<text text-anchor="middle" x="461.095" y="-43.3" font-family="Times,serif" font-size="14.00">Invoice generated</text>
</g>
<!-- saved&#45;&gt;invoice -->
<g id="edge2" class="edge"><title>saved&#45;&gt;invoice</title>
<path fill="none" stroke="black" d="M217.709,-45.1797C223.496,-47.1792 229.671,-48.9564 235.595,-50 288.304,-59.2859 349.053,-57.7479 394.056,-54.3254"/>
<polygon fill="black" stroke="black" points="394.591,-57.7936 404.275,-53.4956 394.024,-50.8166 394.591,-57.7936"/>
<text text-anchor="middle" x="311.095" y="-59.8" font-family="Times,serif" font-size="14.00">Invoice generated</text>
</g>
<!-- done -->
<g id="node5" class="node"><title>done</title>
<polygon fill="none" stroke="black" points="868.595,-36 791.595,-36 791.595,-0 868.595,-0 868.595,-36"/>
<text text-anchor="middle" x="830.095" y="-14.3" font-family="Times,serif" font-size="14.00">Completed</text>
</g>
<!-- saved&#45;&gt;done -->
<g id="edge7" class="edge"><title>saved&#45;&gt;done</title>
<path fill="none" stroke="black" d="M217.932,-26.3833C223.705,-25.0043 229.819,-23.7632 235.595,-23 310.071,-13.1599 329.477,-20.8437 404.595,-20 541.242,-18.4653 702.645,-18.1046 781.252,-18.0223"/>
<polygon fill="black" stroke="black" points="781.333,-21.5223 791.329,-18.0128 781.326,-14.5223 781.333,-21.5223"/>
<text text-anchor="middle" x="594.095" y="-21.8" font-family="Times,serif" font-size="14.00">No payment required</text>
</g>
<!-- invoice&#45;&gt;saved -->
<g id="edge6" class="edge"><title>invoice&#45;&gt;saved</title>
<path fill="none" stroke="black" d="M404.518,-33.5905C398.498,-32.5306 392.438,-31.6286 386.595,-31 331.552,-25.0782 267.272,-27.9448 228.009,-30.7892"/>
<polygon fill="black" stroke="black" points="227.572,-27.3124 217.867,-31.5642 228.105,-34.292 227.572,-27.3124"/>
<text text-anchor="middle" x="311.095" y="-34.8" font-family="Times,serif" font-size="14.00">Invoice expired or canceled</text>
</g>
<!-- paid -->
<g id="node4" class="node"><title>paid</title>
<polygon fill="none" stroke="black" points="754.595,-65 670.595,-65 670.595,-29 754.595,-29 754.595,-65"/>
<text text-anchor="middle" x="712.595" y="-43.3" font-family="Times,serif" font-size="14.00">Invoice paid</text>
</g>
<!-- invoice&#45;&gt;paid -->
<g id="edge3" class="edge"><title>invoice&#45;&gt;paid</title>
<path fill="none" stroke="black" d="M517.777,-47C560.41,-47 618.757,-47 660.267,-47"/>
<polygon fill="black" stroke="black" points="660.438,-50.5001 670.438,-47 660.438,-43.5001 660.438,-50.5001"/>
<text text-anchor="middle" x="594.095" y="-50.8" font-family="Times,serif" font-size="14.00">Payment</text>
</g>
<!-- paid&#45;&gt;done -->
<g id="edge4" class="edge"><title>paid&#45;&gt;done</title>
<path fill="none" stroke="black" d="M754.641,-36.694C763.31,-34.5176 772.527,-32.2032 781.416,-29.9713"/>
<polygon fill="black" stroke="black" points="782.42,-33.3281 791.266,-27.4982 780.715,-26.5389 782.42,-33.3281"/>
</g>
</g>
</svg>
