<?xml version="1.0" encoding="UTF-8" standalone="no"?>
<!DOCTYPE svg PUBLIC "-//W3C//DTD SVG 1.1//EN"
 "http://www.w3.org/Graphics/SVG/1.1/DTD/svg11.dtd">
<!-- Generated by graphviz version 2.40.1 (20161225.0304)
 -->
<!-- Title: talkstates Pages: 1 -->
<svg width="669pt" height="630pt"
 viewBox="0.00 0.00 668.50 629.60" xmlns="http://www.w3.org/2000/svg" xmlns:xlink="http://www.w3.org/1999/xlink">
<g id="graph0" class="graph" transform="scale(1 1) rotate(0) translate(4 625.5952)">
<title>talkstates</title>
<polygon fill="#ffffff" stroke="transparent" points="-4,4 -4,-625.5952 664.5,-625.5952 664.5,4 -4,4"/>
<!-- key -->
<g id="node1" class="node">
<title>key</title>
<polygon fill="none" stroke="#000000" points="137,-612.2976 0,-612.2976 0,-576.2976 137,-576.2976 137,-612.2976"/>
<text text-anchor="start" x="11.5" y="-598.0976" font-family="Times,serif" font-size="14.00" fill="#000000"> &#160;&#160;&#160;</text>
<text text-anchor="start" x="27.5" y="-598.0976" font-family="Times,serif" font-size="14.00" fill="#0000ff">Actions by admin</text>
<text text-anchor="start" x="8" y="-584.0976" font-family="Times,serif" font-size="14.00" fill="#000000"> &#160;&#160;&#160;</text>
<text text-anchor="start" x="24" y="-584.0976" font-family="Times,serif" font-size="14.00" fill="#00ff00">Actions by speaker</text>
</g>
<!-- start -->
<g id="node2" class="node">
<title>start</title>
<ellipse fill="none" stroke="#000000" cx="182.5" cy="-594.2976" rx="27.0966" ry="27.0966"/>
<text text-anchor="middle" x="182.5" y="-590.5976" font-family="Times,serif" font-size="14.00" fill="#000000">Start</text>
</g>
<!-- submitted -->
<g id="node3" class="node">
<title>submitted</title>
<polygon fill="none" stroke="#000000" points="219,-516 146,-516 146,-480 219,-480 219,-516"/>
<text text-anchor="middle" x="182.5" y="-494.3" font-family="Times,serif" font-size="14.00" fill="#000000">Submitted</text>
</g>
<!-- start&#45;&gt;submitted -->
<g id="edge1" class="edge">
<title>start&#45;&gt;submitted</title>
<path fill="none" stroke="#00ff00" d="M182.5,-566.9601C182.5,-554.2752 182.5,-539.204 182.5,-526.3911"/>
<polygon fill="#00ff00" stroke="#00ff00" points="186.0001,-526.2614 182.5,-516.2615 179.0001,-526.2615 186.0001,-526.2614"/>
<text text-anchor="middle" x="240" y="-537.8" font-family="Times,serif" font-size="14.00" fill="#000000">Speaker submits talk</text>
</g>
<!-- pending -->
<g id="node4" class="node">
<title>pending</title>
<polygon fill="none" stroke="#000000" points="195,-210 134,-210 134,-174 195,-174 195,-210"/>
<text text-anchor="middle" x="164.5" y="-188.3" font-family="Times,serif" font-size="14.00" fill="#000000">Pending</text>
</g>
<!-- submitted&#45;&gt;pending -->
<g id="edge2" class="edge">
<title>submitted&#45;&gt;pending</title>
<path fill="none" stroke="#0000ff" d="M154.2318,-479.9804C121.0913,-456.9 68.1896,-413.4253 48.5,-360 27.4584,-302.9064 86.803,-246.8367 128.1826,-216.0927"/>
<polygon fill="#0000ff" stroke="#0000ff" points="130.4011,-218.8075 136.447,-210.1071 126.295,-213.1383 130.4011,-218.8075"/>
<text text-anchor="middle" x="88" y="-341.3" font-family="Times,serif" font-size="14.00" fill="#000000">Talk approved</text>
</g>
<!-- pendingreserve -->
<g id="node7" class="node">
<title>pendingreserve</title>
<polygon fill="none" stroke="#000000" points="465.5,-414 361.5,-414 361.5,-378 465.5,-378 465.5,-414"/>
<text text-anchor="middle" x="413.5" y="-392.3" font-family="Times,serif" font-size="14.00" fill="#000000">Pending reserve</text>
</g>
<!-- submitted&#45;&gt;pendingreserve -->
<g id="edge7" class="edge">
<title>submitted&#45;&gt;pendingreserve</title>
<path fill="none" stroke="#0000ff" d="M219.0659,-494.9154C268.0784,-490.1654 351.7861,-479.7056 376.5,-462 389.5611,-452.6427 398.5877,-437.1607 404.4535,-423.5426"/>
<polygon fill="#0000ff" stroke="#0000ff" points="407.7759,-424.6573 408.1785,-414.0701 401.2616,-422.0954 407.7759,-424.6573"/>
<text text-anchor="middle" x="429.5" y="-450.8" font-family="Times,serif" font-size="14.00" fill="#000000">Talk to</text>
<text text-anchor="middle" x="429.5" y="-435.8" font-family="Times,serif" font-size="14.00" fill="#000000">reserve list</text>
</g>
<!-- notaccepted -->
<g id="node8" class="node">
<title>notaccepted</title>
<polygon fill="none" stroke="#000000" points="306.5,-414 214.5,-414 214.5,-378 306.5,-378 306.5,-414"/>
<text text-anchor="middle" x="260.5" y="-392.3" font-family="Times,serif" font-size="14.00" fill="#000000">Not Accepted</text>
</g>
<!-- submitted&#45;&gt;notaccepted -->
<g id="edge6" class="edge">
<title>submitted&#45;&gt;notaccepted</title>
<path fill="none" stroke="#0000ff" d="M177.9123,-479.9857C175.3773,-465.8058 174.3486,-446.1431 183.5,-432 188.8549,-423.7242 196.6577,-417.3162 205.2663,-412.3647"/>
<polygon fill="#0000ff" stroke="#0000ff" points="207.1163,-415.3512 214.4603,-407.7147 203.957,-409.1047 207.1163,-415.3512"/>
<text text-anchor="middle" x="232" y="-443.3" font-family="Times,serif" font-size="14.00" fill="#000000">Talk not accepted</text>
</g>
<!-- pending&#45;&gt;submitted -->
<g id="edge5" class="edge">
<title>pending&#45;&gt;submitted</title>
<path fill="none" stroke="#0000ff" d="M164.3083,-210.2109C164.2155,-223.4656 164.1834,-241.8469 164.5,-258 166.2781,-348.7189 158.4857,-372.3524 172.5,-462 172.9177,-464.6717 173.4645,-467.4279 174.0873,-470.1702"/>
<polygon fill="#0000ff" stroke="#0000ff" points="170.7003,-471.0529 176.5811,-479.8658 177.4797,-469.3091 170.7003,-471.0529"/>
<text text-anchor="middle" x="211" y="-341.3" font-family="Times,serif" font-size="14.00" fill="#000000">Talk unapproved</text>
</g>
<!-- approved -->
<g id="node5" class="node">
<title>approved</title>
<polygon fill="none" stroke="#000000" points="346,-123 275,-123 275,-87 346,-87 346,-123"/>
<text text-anchor="middle" x="310.5" y="-101.3" font-family="Times,serif" font-size="14.00" fill="#000000">Approved</text>
</g>
<!-- pending&#45;&gt;approved -->
<g id="edge3" class="edge">
<title>pending&#45;&gt;approved</title>
<path fill="none" stroke="#00ff00" d="M172.7302,-173.541C178.4866,-162.6056 187.1721,-149.3058 198.5,-141 221.6397,-124.0335 233.2101,-131.8639 260.5,-123 261.9533,-122.528 263.4278,-122.0417 264.9148,-121.5449"/>
<polygon fill="#00ff00" stroke="#00ff00" points="266.4876,-124.7059 274.8148,-118.1555 264.2202,-118.0833 266.4876,-124.7059"/>
<text text-anchor="middle" x="247" y="-144.8" font-family="Times,serif" font-size="14.00" fill="#000000">Speaker confirms</text>
</g>
<!-- withdrawn -->
<g id="node9" class="node">
<title>withdrawn</title>
<polygon fill="none" stroke="#000000" points="428.5,-36 350.5,-36 350.5,0 428.5,0 428.5,-36"/>
<text text-anchor="middle" x="389.5" y="-14.3" font-family="Times,serif" font-size="14.00" fill="#000000">Withdrawn</text>
</g>
<!-- pending&#45;&gt;withdrawn -->
<g id="edge4" class="edge">
<title>pending&#45;&gt;withdrawn</title>
<path fill="none" stroke="#0000ff" d="M160.7088,-173.828C157.0549,-150.9552 154.6395,-111.6806 174.5,-87 195.4239,-60.9979 283.6321,-39.0594 340.3603,-27.2825"/>
<polygon fill="#0000ff" stroke="#0000ff" points="341.1177,-30.7001 350.2166,-25.2724 339.7189,-23.8413 341.1177,-30.7001"/>
<text text-anchor="middle" x="220.5" y="-101.3" font-family="Times,serif" font-size="14.00" fill="#000000">Speaker declines</text>
</g>
<!-- approved&#45;&gt;withdrawn -->
<g id="edge11" class="edge">
<title>approved&#45;&gt;withdrawn</title>
<path fill="none" stroke="#0000ff" d="M314.9056,-86.9995C318.1631,-76.5002 323.4527,-63.497 331.5,-54 335.1393,-49.7051 339.4249,-45.7646 343.9916,-42.1949"/>
<polygon fill="#0000ff" stroke="#0000ff" points="346.3263,-44.8288 352.4365,-36.1734 342.2624,-39.1293 346.3263,-44.8288"/>
<text text-anchor="middle" x="383.5" y="-57.8" font-family="Times,serif" font-size="14.00" fill="#000000">Speaker withdraws</text>
</g>
<!-- reserve -->
<g id="node6" class="node">
<title>reserve</title>
<polygon fill="none" stroke="#000000" points="365.5,-312 305.5,-312 305.5,-276 365.5,-276 365.5,-312"/>
<text text-anchor="middle" x="335.5" y="-290.3" font-family="Times,serif" font-size="14.00" fill="#000000">Reserve</text>
</g>
<!-- reserve&#45;&gt;pending -->
<g id="edge10" class="edge">
<title>reserve&#45;&gt;pending</title>
<path fill="none" stroke="#0000ff" d="M305.3065,-290.4748C266.1393,-285.3077 200.7728,-274.4673 183.5,-258 173.2854,-248.2618 168.4546,-233.4202 166.2128,-220.2759"/>
<polygon fill="#0000ff" stroke="#0000ff" points="169.6674,-219.6982 164.9166,-210.2282 162.7249,-220.5939 169.6674,-219.6982"/>
<text text-anchor="middle" x="239.5" y="-246.8" font-family="Times,serif" font-size="14.00" fill="#000000">Normal activate talk</text>
<text text-anchor="middle" x="239.5" y="-231.8" font-family="Times,serif" font-size="14.00" fill="#000000"> from reserve list</text>
</g>
<!-- reserve&#45;&gt;approved -->
<g id="edge13" class="edge">
<title>reserve&#45;&gt;approved</title>
<path fill="none" stroke="#0000ff" d="M332.8276,-275.989C330.3287,-258.9888 326.537,-232.7794 323.5,-210 320.0321,-183.9885 316.3862,-154.3087 313.841,-133.1557"/>
<polygon fill="#0000ff" stroke="#0000ff" points="317.3158,-132.736 312.6513,-123.2233 310.3655,-133.5686 317.3158,-132.736"/>
<text text-anchor="middle" x="379.5" y="-195.8" font-family="Times,serif" font-size="14.00" fill="#000000">Last minute activate</text>
<text text-anchor="middle" x="379.5" y="-180.8" font-family="Times,serif" font-size="14.00" fill="#000000">from reserve</text>
</g>
<!-- reserve&#45;&gt;withdrawn -->
<g id="edge14" class="edge">
<title>reserve&#45;&gt;withdrawn</title>
<path fill="none" stroke="#0000ff" d="M365.8272,-278.2919C389.6957,-264.0538 421.2306,-240.6219 435.5,-210 450.1425,-178.5775 450.6841,-85.1644 435.5,-54 433.6011,-50.1027 431.0537,-46.5031 428.1272,-43.2105"/>
<polygon fill="#0000ff" stroke="#0000ff" points="430.3671,-40.5083 420.7378,-36.0892 425.5096,-45.5486 430.3671,-40.5083"/>
<text text-anchor="middle" x="498.5" y="-144.8" font-family="Times,serif" font-size="14.00" fill="#000000">Speaker withdraws</text>
</g>
<!-- pendingreserve&#45;&gt;reserve -->
<g id="edge8" class="edge">
<title>pendingreserve&#45;&gt;reserve</title>
<path fill="none" stroke="#00ff00" d="M399.5552,-377.7644C387.3542,-361.8093 369.4796,-338.4349 355.7107,-320.4294"/>
<polygon fill="#00ff00" stroke="#00ff00" points="358.1789,-317.8952 349.3241,-312.0777 352.6184,-322.1474 358.1789,-317.8952"/>
<text text-anchor="middle" x="439" y="-348.8" font-family="Times,serif" font-size="14.00" fill="#000000">Speaker confirms to</text>
<text text-anchor="middle" x="439" y="-333.8" font-family="Times,serif" font-size="14.00" fill="#000000">reserve list</text>
</g>
<!-- pendingreserve&#45;&gt;withdrawn -->
<g id="edge9" class="edge">
<title>pendingreserve&#45;&gt;withdrawn</title>
<path fill="none" stroke="#0000ff" d="M465.5439,-384.5994C510.5731,-371.3089 568.5,-344.4143 568.5,-294 568.5,-294 568.5,-294 568.5,-105 568.5,-75.9688 491.3735,-47.5643 438.3737,-31.4725"/>
<polygon fill="#0000ff" stroke="#0000ff" points="439.3654,-28.116 428.7823,-28.6137 437.3659,-34.8244 439.3654,-28.116"/>
<text text-anchor="middle" x="614.5" y="-188.3" font-family="Times,serif" font-size="14.00" fill="#000000">Speaker declines</text>
</g>
<!-- notaccepted&#45;&gt;submitted -->
<g id="edge12" class="edge">
<title>notaccepted&#45;&gt;submitted</title>
<path fill="none" stroke="#0000ff" d="M273.9462,-414.1454C282.5929,-428.2148 290.505,-447.666 280.5,-462 274.0838,-471.1924 250.9882,-479.9064 228.8296,-486.4582"/>
<polygon fill="#0000ff" stroke="#0000ff" points="227.7738,-483.1195 219.1111,-489.2193 229.6869,-489.8531 227.7738,-483.1195"/>
<text text-anchor="middle" x="328.5" y="-443.3" font-family="Times,serif" font-size="14.00" fill="#000000">Processing reset</text>
</g>
</g>
</svg>
