<?xml version="1.0" encoding="UTF-8" standalone="no"?>
<!DOCTYPE svg PUBLIC "-//W3C//DTD SVG 1.1//EN"
 "http://www.w3.org/Graphics/SVG/1.1/DTD/svg11.dtd">
<!-- Generated by graphviz version 2.38.0 (20140413.2041)
 -->
<!-- Title: talkstates Pages: 1 -->
<svg width="708pt" height="641pt"
 viewBox="0.00 0.00 708.00 640.60" xmlns="http://www.w3.org/2000/svg" xmlns:xlink="http://www.w3.org/1999/xlink">
<g id="graph0" class="graph" transform="scale(1 1) rotate(0) translate(4 636.595)">
<title>talkstates</title>
<polygon fill="white" stroke="none" points="-4,4 -4,-636.595 704,-636.595 704,4 -4,4"/>
<!-- key -->
<g id="node1" class="node"><title>key</title>
<polygon fill="none" stroke="black" points="143.5,-623.298 6.5,-623.298 6.5,-587.298 143.5,-587.298 143.5,-623.298"/>
<text text-anchor="start" x="18" y="-609.098" font-family="Times,serif" font-size="14.00"> &#160;&#160;&#160;</text>
<text text-anchor="start" x="34" y="-609.098" font-family="Times,serif" font-size="14.00" fill="blue">Actions by admin</text>
<text text-anchor="start" x="14.5" y="-595.098" font-family="Times,serif" font-size="14.00"> &#160;&#160;&#160;</text>
<text text-anchor="start" x="30.5" y="-595.098" font-family="Times,serif" font-size="14.00" fill="green">Actions by speaker</text>
</g>
<!-- start -->
<g id="node2" class="node"><title>start</title>
<ellipse fill="none" stroke="black" cx="189" cy="-605.298" rx="27.0966" ry="27.0966"/>
<text text-anchor="middle" x="189" y="-601.598" font-family="Times,serif" font-size="14.00">Start</text>
</g>
<!-- submitted -->
<g id="node3" class="node"><title>submitted</title>
<polygon fill="none" stroke="black" points="225.5,-527 152.5,-527 152.5,-491 225.5,-491 225.5,-527"/>
<text text-anchor="middle" x="189" y="-505.3" font-family="Times,serif" font-size="14.00">Submitted</text>
</g>
<!-- start&#45;&gt;submitted -->
<g id="edge1" class="edge"><title>start&#45;&gt;submitted</title>
<path fill="none" stroke="green" d="M189,-577.78C189,-565.097 189,-549.934 189,-537.169"/>
<polygon fill="green" stroke="green" points="192.5,-537.117 189,-527.117 185.5,-537.117 192.5,-537.117"/>
<text text-anchor="middle" x="246.5" y="-548.8" font-family="Times,serif" font-size="14.00">Speaker submits talk</text>
</g>
<!-- pending -->
<g id="node4" class="node"><title>pending</title>
<polygon fill="none" stroke="black" points="226.5,-210 165.5,-210 165.5,-174 226.5,-174 226.5,-210"/>
<text text-anchor="middle" x="196" y="-188.3" font-family="Times,serif" font-size="14.00">Pending</text>
</g>
<!-- submitted&#45;&gt;pending -->
<g id="edge2" class="edge"><title>submitted&#45;&gt;pending</title>
<path fill="none" stroke="blue" d="M167.346,-490.842C131.535,-460.231 65.9988,-393.447 88,-330 103.895,-284.162 142.184,-242.048 168.619,-216.944"/>
<polygon fill="blue" stroke="blue" points="171.126,-219.392 176.068,-210.02 166.36,-214.265 171.126,-219.392"/>
<text text-anchor="middle" x="127.5" y="-341.3" font-family="Times,serif" font-size="14.00">Talk approved</text>
</g>
<!-- pendingreserve -->
<g id="node7" class="node"><title>pendingreserve</title>
<polygon fill="none" stroke="black" points="357,-454 217,-416 357,-378 497,-416 357,-454"/>
<text text-anchor="middle" x="357" y="-419.8" font-family="Times,serif" font-size="14.00">Contact speaker to ask</text>
<text text-anchor="middle" x="357" y="-404.8" font-family="Times,serif" font-size="14.00">about reserve list</text>
</g>
<!-- submitted&#45;&gt;pendingreserve -->
<g id="edge7" class="edge"><title>submitted&#45;&gt;pendingreserve</title>
<path fill="none" stroke="blue" d="M220.6,-490.884C243.571,-478.441 275.248,-461.282 302.293,-446.633"/>
<polygon fill="blue" stroke="blue" points="304.142,-449.612 311.268,-441.771 300.808,-443.457 304.142,-449.612"/>
</g>
<!-- rejected -->
<g id="node8" class="node"><title>rejected</title>
<polygon fill="none" stroke="black" points="388,-36 296,-36 296,-0 388,-0 388,-36"/>
<text text-anchor="middle" x="342" y="-14.3" font-family="Times,serif" font-size="14.00">Not Accepted</text>
</g>
<!-- submitted&#45;&gt;rejected -->
<g id="edge6" class="edge"><title>submitted&#45;&gt;rejected</title>
<path fill="none" stroke="blue" d="M152.11,-506.318C97.1078,-501.607 0,-483.827 0,-417 0,-417 0,-417 0,-104 0,-45.855 188.535,-27.1945 285.639,-21.4396"/>
<polygon fill="blue" stroke="blue" points="286.09,-24.9198 295.876,-20.8606 285.695,-17.931 286.09,-24.9198"/>
<text text-anchor="middle" x="36" y="-239.3" font-family="Times,serif" font-size="14.00">Talk rejected</text>
</g>
<!-- pending&#45;&gt;submitted -->
<g id="edge5" class="edge"><title>pending&#45;&gt;submitted</title>
<path fill="none" stroke="blue" d="M195.615,-210.331C194.46,-262.321 191.016,-417.27 189.609,-480.585"/>
<polygon fill="blue" stroke="blue" points="186.109,-480.54 189.386,-490.616 193.108,-480.696 186.109,-480.54"/>
<text text-anchor="middle" x="238.5" y="-341.3" font-family="Times,serif" font-size="14.00">Talk unapproved</text>
</g>
<!-- approved -->
<g id="node5" class="node"><title>approved</title>
<polygon fill="none" stroke="black" points="377.5,-123 306.5,-123 306.5,-87 377.5,-87 377.5,-123"/>
<text text-anchor="middle" x="342" y="-101.3" font-family="Times,serif" font-size="14.00">Approved</text>
</g>
<!-- pending&#45;&gt;approved -->
<g id="edge3" class="edge"><title>pending&#45;&gt;approved</title>
<path fill="none" stroke="green" d="M204.15,-173.887C210.154,-163 219.301,-149.414 231,-141 253.948,-124.495 265.058,-131.551 292,-123 293.447,-122.541 294.917,-122.069 296.399,-121.59"/>
<polygon fill="green" stroke="green" points="297.872,-124.79 306.279,-118.343 295.686,-118.14 297.872,-124.79"/>
<text text-anchor="middle" x="279.5" y="-144.8" font-family="Times,serif" font-size="14.00">Speaker confirms</text>
</g>
<!-- pending&#45;&gt;rejected -->
<g id="edge4" class="edge"><title>pending&#45;&gt;rejected</title>
<path fill="none" stroke="green" d="M192.923,-173.834C189.939,-151.716 188.14,-113.022 206,-87 224.655,-59.8195 257.474,-42.9755 286.198,-32.8514"/>
<polygon fill="green" stroke="green" points="287.372,-36.1493 295.756,-29.6704 285.162,-29.5074 287.372,-36.1493"/>
<text text-anchor="middle" x="252" y="-101.3" font-family="Times,serif" font-size="14.00">Speaker declines</text>
</g>
<!-- approved&#45;&gt;rejected -->
<g id="edge11" class="edge"><title>approved&#45;&gt;rejected</title>
<path fill="none" stroke="blue" d="M342,-86.799C342,-75.1626 342,-59.5479 342,-46.2368"/>
<polygon fill="blue" stroke="blue" points="345.5,-46.1754 342,-36.1754 338.5,-46.1755 345.5,-46.1754"/>
<text text-anchor="middle" x="394" y="-57.8" font-family="Times,serif" font-size="14.00">Speaker withdraws</text>
</g>
<!-- reserve -->
<g id="node6" class="node"><title>reserve</title>
<polygon fill="none" stroke="black" points="379,-312 319,-312 319,-276 379,-276 379,-312"/>
<text text-anchor="middle" x="349" y="-290.3" font-family="Times,serif" font-size="14.00">Reserve</text>
</g>
<!-- reserve&#45;&gt;pending -->
<g id="edge10" class="edge"><title>reserve&#45;&gt;pending</title>
<path fill="none" stroke="blue" d="M318.756,-291.914C290.78,-289.376 249.618,-281.536 223,-258 211.948,-248.228 205.316,-233.217 201.392,-220.082"/>
<polygon fill="blue" stroke="blue" points="204.697,-218.883 198.793,-210.085 197.922,-220.644 204.697,-218.883"/>
<text text-anchor="middle" x="279" y="-246.8" font-family="Times,serif" font-size="14.00">Normal activate talk</text>
<text text-anchor="middle" x="279" y="-231.8" font-family="Times,serif" font-size="14.00"> from reserve list</text>
</g>
<!-- reserve&#45;&gt;approved -->
<g id="edge13" class="edge"><title>reserve&#45;&gt;approved</title>
<path fill="none" stroke="blue" d="M348.354,-275.743C347.135,-243.18 344.487,-172.443 343.024,-133.346"/>
<polygon fill="blue" stroke="blue" points="346.516,-133.078 342.644,-123.216 339.521,-133.34 346.516,-133.078"/>
<text text-anchor="middle" x="401" y="-195.8" font-family="Times,serif" font-size="14.00">Last minute activate</text>
<text text-anchor="middle" x="401" y="-180.8" font-family="Times,serif" font-size="14.00">from reserve</text>
</g>
<!-- pendingreserve&#45;&gt;reserve -->
<g id="edge8" class="edge"><title>pendingreserve&#45;&gt;reserve</title>
<path fill="none" stroke="blue" d="M354.556,-378.344C353.35,-360.251 351.92,-338.803 350.813,-322.196"/>
<polygon fill="blue" stroke="blue" points="354.295,-321.811 350.138,-312.066 347.311,-322.276 354.295,-321.811"/>
<text text-anchor="middle" x="390" y="-348.8" font-family="Times,serif" font-size="14.00">Confirmed to</text>
<text text-anchor="middle" x="390" y="-333.8" font-family="Times,serif" font-size="14.00">reserve list</text>
</g>
<!-- pendingreserve&#45;&gt;rejected -->
<g id="edge9" class="edge"><title>pendingreserve&#45;&gt;rejected</title>
<path fill="none" stroke="blue" d="M410.33,-392.317C447.331,-372.603 490,-340.095 490,-295 490,-295 490,-295 490,-104 490,-59.8354 439.829,-38.2844 397.91,-27.9858"/>
<polygon fill="blue" stroke="blue" points="398.546,-24.541 388.017,-25.72 396.983,-31.3643 398.546,-24.541"/>
<text text-anchor="middle" x="537" y="-188.3" font-family="Times,serif" font-size="14.00">Speaker declined</text>
</g>
<!-- rejected&#45;&gt;submitted -->
<g id="edge12" class="edge"><title>rejected&#45;&gt;submitted</title>
<path fill="none" stroke="blue" d="M388.108,-23.9138C465.223,-33.4255 612,-57.6213 612,-104 612,-417 612,-417 612,-417 612,-493.227 346.141,-505.785 235.961,-507.716"/>
<polygon fill="blue" stroke="blue" points="235.744,-504.219 225.799,-507.872 235.851,-511.218 235.744,-504.219"/>
<text text-anchor="middle" x="656" y="-239.3" font-family="Times,serif" font-size="14.00">Processing reset</text>
</g>
</g>
</svg>
