<?xml version="1.0" encoding="UTF-8" standalone="no"?>
<!DOCTYPE svg PUBLIC "-//W3C//DTD SVG 1.1//EN"
 "http://www.w3.org/Graphics/SVG/1.1/DTD/svg11.dtd">
<!-- Generated by graphviz version 2.40.1 (20161225.0304)
 -->
<!-- Title: talkstates Pages: 1 -->
<svg width="775pt" height="630pt"
 viewBox="0.00 0.00 775.00 629.60" xmlns="http://www.w3.org/2000/svg" xmlns:xlink="http://www.w3.org/1999/xlink">
<g id="graph0" class="graph" transform="scale(1 1) rotate(0) translate(4 625.5952)">
<title>talkstates</title>
<polygon fill="#ffffff" stroke="transparent" points="-4,4 -4,-625.5952 771,-625.5952 771,4 -4,4"/>
<!-- key -->
<g id="node1" class="node">
<title>key</title>
<polygon fill="none" stroke="#000000" points="168.5,-612.2976 31.5,-612.2976 31.5,-576.2976 168.5,-576.2976 168.5,-612.2976"/>
<text text-anchor="start" x="43" y="-598.0976" font-family="Times,serif" font-size="14.00" fill="#000000"> &#160;&#160;&#160;</text>
<text text-anchor="start" x="59" y="-598.0976" font-family="Times,serif" font-size="14.00" fill="#0000ff">Actions by admin</text>
<text text-anchor="start" x="39.5" y="-584.0976" font-family="Times,serif" font-size="14.00" fill="#000000"> &#160;&#160;&#160;</text>
<text text-anchor="start" x="55.5" y="-584.0976" font-family="Times,serif" font-size="14.00" fill="#00ff00">Actions by speaker</text>
</g>
<!-- start -->
<g id="node2" class="node">
<title>start</title>
<ellipse fill="none" stroke="#000000" cx="214" cy="-594.2976" rx="27.0966" ry="27.0966"/>
<text text-anchor="middle" x="214" y="-590.5976" font-family="Times,serif" font-size="14.00" fill="#000000">Start</text>
</g>
<!-- submitted -->
<g id="node3" class="node">
<title>submitted</title>
<polygon fill="none" stroke="#000000" points="250.5,-516 177.5,-516 177.5,-480 250.5,-480 250.5,-516"/>
<text text-anchor="middle" x="214" y="-494.3" font-family="Times,serif" font-size="14.00" fill="#000000">Submitted</text>
</g>
<!-- start&#45;&gt;submitted -->
<g id="edge1" class="edge">
<title>start&#45;&gt;submitted</title>
<path fill="none" stroke="#00ff00" d="M214,-566.9601C214,-554.2752 214,-539.204 214,-526.3911"/>
<polygon fill="#00ff00" stroke="#00ff00" points="217.5001,-526.2614 214,-516.2615 210.5001,-526.2615 217.5001,-526.2614"/>
<text text-anchor="middle" x="271.5" y="-537.8" font-family="Times,serif" font-size="14.00" fill="#000000">Speaker submits talk</text>
</g>
<!-- pending -->
<g id="node4" class="node">
<title>pending</title>
<polygon fill="none" stroke="#000000" points="222.5,-210 161.5,-210 161.5,-174 222.5,-174 222.5,-210"/>
<text text-anchor="middle" x="192" y="-188.3" font-family="Times,serif" font-size="14.00" fill="#000000">Pending</text>
</g>
<!-- submitted&#45;&gt;pending -->
<g id="edge2" class="edge">
<title>submitted&#45;&gt;pending</title>
<path fill="none" stroke="#0000ff" d="M194.4907,-479.7081C169.9411,-455.2095 129.0494,-409.1035 113,-360 95.8305,-307.4695 137.1032,-249.9387 166.2317,-217.6729"/>
<polygon fill="#0000ff" stroke="#0000ff" points="169.0886,-219.7401 173.3326,-210.0324 163.9611,-214.9747 169.0886,-219.7401"/>
<text text-anchor="middle" x="152.5" y="-341.3" font-family="Times,serif" font-size="14.00" fill="#000000">Talk approved</text>
</g>
<!-- pendingreserve -->
<g id="node7" class="node">
<title>pendingreserve</title>
<polygon fill="none" stroke="#000000" points="404,-414 300,-414 300,-378 404,-378 404,-414"/>
<text text-anchor="middle" x="352" y="-392.3" font-family="Times,serif" font-size="14.00" fill="#000000">Pending reserve</text>
</g>
<!-- submitted&#45;&gt;pendingreserve -->
<g id="edge7" class="edge">
<title>submitted&#45;&gt;pendingreserve</title>
<path fill="none" stroke="#0000ff" d="M238.354,-479.9992C260.878,-463.3511 294.5253,-438.4813 319.3671,-420.12"/>
<polygon fill="#0000ff" stroke="#0000ff" points="321.4639,-422.9225 327.4253,-414.1639 317.3031,-417.2932 321.4639,-422.9225"/>
<text text-anchor="middle" x="329" y="-450.8" font-family="Times,serif" font-size="14.00" fill="#000000">Talk to</text>
<text text-anchor="middle" x="329" y="-435.8" font-family="Times,serif" font-size="14.00" fill="#000000">reserve list</text>
</g>
<!-- notaccepted -->
<g id="node8" class="node">
<title>notaccepted</title>
<polygon fill="none" stroke="#000000" points="426,-36 334,-36 334,0 426,0 426,-36"/>
<text text-anchor="middle" x="380" y="-14.3" font-family="Times,serif" font-size="14.00" fill="#000000">Not Accepted</text>
</g>
<!-- submitted&#45;&gt;notaccepted -->
<g id="edge6" class="edge">
<title>submitted&#45;&gt;notaccepted</title>
<path fill="none" stroke="#0000ff" d="M177.2121,-488.5561C116.0263,-471.7583 0,-434.7906 0,-396 0,-396 0,-396 0,-105 0,-39.42 217.769,-23.2729 323.5969,-19.2978"/>
<polygon fill="#0000ff" stroke="#0000ff" points="323.9136,-22.7889 333.7844,-18.9398 323.6677,-15.7932 323.9136,-22.7889"/>
<text text-anchor="middle" x="48.5" y="-239.3" font-family="Times,serif" font-size="14.00" fill="#000000">Talk not accepted</text>
</g>
<!-- pending&#45;&gt;submitted -->
<g id="edge5" class="edge">
<title>pending&#45;&gt;submitted</title>
<path fill="none" stroke="#0000ff" d="M193.3034,-210.1298C196.9863,-261.3544 207.4908,-407.4626 211.9539,-469.5405"/>
<polygon fill="#0000ff" stroke="#0000ff" points="208.4815,-470.0515 212.6897,-479.7747 215.4635,-469.5494 208.4815,-470.0515"/>
<text text-anchor="middle" x="251.5" y="-341.3" font-family="Times,serif" font-size="14.00" fill="#000000">Talk unapproved</text>
</g>
<!-- approved -->
<g id="node5" class="node">
<title>approved</title>
<polygon fill="none" stroke="#000000" points="356.5,-123 285.5,-123 285.5,-87 356.5,-87 356.5,-123"/>
<text text-anchor="middle" x="321" y="-101.3" font-family="Times,serif" font-size="14.00" fill="#000000">Approved</text>
</g>
<!-- pending&#45;&gt;approved -->
<g id="edge3" class="edge">
<title>pending&#45;&gt;approved</title>
<path fill="none" stroke="#00ff00" d="M194.2504,-173.6999C196.505,-162.8243 201.0097,-149.5316 210,-141 230.504,-121.5424 244.135,-131.791 271,-123 272.4523,-122.5248 273.9259,-122.0357 275.4121,-121.5366"/>
<polygon fill="#00ff00" stroke="#00ff00" points="276.9885,-124.6958 285.3085,-118.1362 274.7138,-118.0757 276.9885,-124.6958"/>
<text text-anchor="middle" x="258.5" y="-144.8" font-family="Times,serif" font-size="14.00" fill="#000000">Speaker confirms</text>
</g>
<!-- pending&#45;&gt;notaccepted -->
<g id="edge4" class="edge">
<title>pending&#45;&gt;notaccepted</title>
<path fill="none" stroke="#00ff00" d="M184.3747,-173.7921C176.2561,-151.2379 166.8608,-112.6598 185,-87 201.4216,-63.7699 272.2081,-42.8646 323.7769,-30.3044"/>
<polygon fill="#00ff00" stroke="#00ff00" points="324.9005,-33.6345 333.8127,-27.9054 323.2729,-26.8263 324.9005,-33.6345"/>
<text text-anchor="middle" x="231" y="-101.3" font-family="Times,serif" font-size="14.00" fill="#000000">Speaker declines</text>
</g>
<!-- approved&#45;&gt;notaccepted -->
<g id="edge11" class="edge">
<title>approved&#45;&gt;notaccepted</title>
<path fill="none" stroke="#0000ff" d="M317.2945,-86.8886C316.1427,-76.6015 316.3927,-63.8515 322,-54 324.4018,-49.7803 327.5203,-45.9892 331.0646,-42.5975"/>
<polygon fill="#0000ff" stroke="#0000ff" points="333.3523,-45.2477 338.8445,-36.1875 328.9011,-39.8452 333.3523,-45.2477"/>
<text text-anchor="middle" x="374" y="-57.8" font-family="Times,serif" font-size="14.00" fill="#000000">Speaker withdraws</text>
</g>
<!-- reserve -->
<g id="node6" class="node">
<title>reserve</title>
<polygon fill="none" stroke="#000000" points="382,-312 322,-312 322,-276 382,-276 382,-312"/>
<text text-anchor="middle" x="352" y="-290.3" font-family="Times,serif" font-size="14.00" fill="#000000">Reserve</text>
</g>
<!-- reserve&#45;&gt;pending -->
<g id="edge10" class="edge">
<title>reserve&#45;&gt;pending</title>
<path fill="none" stroke="#0000ff" d="M321.9374,-288.2791C289.5403,-281.6242 240.6468,-270.0075 226,-258 214.0852,-248.2322 205.8845,-233.1971 200.527,-219.943"/>
<polygon fill="#0000ff" stroke="#0000ff" points="203.7067,-218.4486 196.97,-210.2714 197.1369,-220.8649 203.7067,-218.4486"/>
<text text-anchor="middle" x="282" y="-246.8" font-family="Times,serif" font-size="14.00" fill="#000000">Normal activate talk</text>
<text text-anchor="middle" x="282" y="-231.8" font-family="Times,serif" font-size="14.00" fill="#000000"> from reserve list</text>
</g>
<!-- reserve&#45;&gt;approved -->
<g id="edge13" class="edge">
<title>reserve&#45;&gt;approved</title>
<path fill="none" stroke="#0000ff" d="M347.9303,-275.7131C344.2411,-258.741 338.8135,-232.745 335,-210 330.6556,-184.0884 326.8,-154.397 324.2407,-133.2142"/>
<polygon fill="#0000ff" stroke="#0000ff" points="327.7141,-132.7827 323.0584,-123.2656 320.763,-133.6088 327.7141,-132.7827"/>
<text text-anchor="middle" x="391" y="-195.8" font-family="Times,serif" font-size="14.00" fill="#000000">Last minute activate</text>
<text text-anchor="middle" x="391" y="-180.8" font-family="Times,serif" font-size="14.00" fill="#000000">from reserve</text>
</g>
<!-- reserve&#45;&gt;notaccepted -->
<g id="edge14" class="edge">
<title>reserve&#45;&gt;notaccepted</title>
<path fill="none" stroke="#0000ff" d="M382.2318,-277.0328C404.7518,-262.5054 433.794,-239.3049 447,-210 453.5736,-195.4128 449.5629,-189.7934 447,-174 445.6492,-165.6761 442.9543,-164.2032 441,-156 430.3808,-111.4266 449.0208,-93.6182 426,-54 423.7025,-50.0461 420.7871,-46.3681 417.5428,-42.9915"/>
<polygon fill="#0000ff" stroke="#0000ff" points="419.7604,-40.2761 410.0272,-36.091 415.0262,-45.4324 419.7604,-40.2761"/>
<text text-anchor="middle" x="493" y="-144.8" font-family="Times,serif" font-size="14.00" fill="#000000">Speaker withdraws</text>
</g>
<!-- pendingreserve&#45;&gt;reserve -->
<g id="edge8" class="edge">
<title>pendingreserve&#45;&gt;reserve</title>
<path fill="none" stroke="#00ff00" d="M352,-377.7644C352,-362.317 352,-339.9149 352,-322.164"/>
<polygon fill="#00ff00" stroke="#00ff00" points="355.5001,-322.0776 352,-312.0777 348.5001,-322.0777 355.5001,-322.0776"/>
<text text-anchor="middle" x="407.5" y="-348.8" font-family="Times,serif" font-size="14.00" fill="#000000">Speaker confirms to</text>
<text text-anchor="middle" x="407.5" y="-333.8" font-family="Times,serif" font-size="14.00" fill="#000000">reserve list</text>
</g>
<!-- pendingreserve&#45;&gt;notaccepted -->
<g id="edge9" class="edge">
<title>pendingreserve&#45;&gt;notaccepted</title>
<path fill="none" stroke="#00ff00" d="M404.0282,-383.5206C424.2484,-377.701 447.2509,-369.8547 467,-360 512.0279,-337.5314 559,-344.3224 559,-294 559,-294 559,-294 559,-105 559,-77.1886 488.2185,-49.9523 435.6746,-33.5652"/>
<polygon fill="#00ff00" stroke="#00ff00" points="436.6834,-30.2138 426.0969,-30.634 434.6348,-36.9073 436.6834,-30.2138"/>
<text text-anchor="middle" x="605" y="-188.3" font-family="Times,serif" font-size="14.00" fill="#000000">Speaker declines</text>
</g>
<!-- notaccepted&#45;&gt;submitted -->
<g id="edge12" class="edge">
<title>notaccepted&#45;&gt;submitted</title>
<path fill="none" stroke="#0000ff" d="M426.0635,-21.7983C509.9354,-29.993 679,-52.9648 679,-105 679,-396 679,-396 679,-396 679,-438.4703 379.2269,-478.4971 261.0656,-492.6249"/>
<polygon fill="#0000ff" stroke="#0000ff" points="260.3949,-489.1798 250.8764,-493.8326 261.2189,-496.1311 260.3949,-489.1798"/>
<text text-anchor="middle" x="723" y="-239.3" font-family="Times,serif" font-size="14.00" fill="#000000">Processing reset</text>
</g>
</g>
</svg>
