<?xml version="1.0" encoding="UTF-8" standalone="no"?>
<!DOCTYPE svg PUBLIC "-//W3C//DTD SVG 1.1//EN"
 "http://www.w3.org/Graphics/SVG/1.1/DTD/svg11.dtd">
<!-- Generated by graphviz version 2.38.0 (20140413.2041)
 -->
<!-- Title: talkstates Pages: 1 -->
<svg width="695pt" height="630pt"
 viewBox="0.00 0.00 695.00 629.60" xmlns="http://www.w3.org/2000/svg" xmlns:xlink="http://www.w3.org/1999/xlink">
<g id="graph0" class="graph" transform="scale(1 1) rotate(0) translate(4 625.595)">
<title>talkstates</title>
<polygon fill="white" stroke="none" points="-4,4 -4,-625.595 691,-625.595 691,4 -4,4"/>
<!-- key -->
<g id="node1" class="node"><title>key</title>
<polygon fill="none" stroke="black" points="143.5,-612.298 6.5,-612.298 6.5,-576.298 143.5,-576.298 143.5,-612.298"/>
<text text-anchor="start" x="18" y="-598.098" font-family="Times,serif" font-size="14.00"> &#160;&#160;&#160;</text>
<text text-anchor="start" x="34" y="-598.098" font-family="Times,serif" font-size="14.00" fill="blue">Actions by admin</text>
<text text-anchor="start" x="14.5" y="-584.098" font-family="Times,serif" font-size="14.00"> &#160;&#160;&#160;</text>
<text text-anchor="start" x="30.5" y="-584.098" font-family="Times,serif" font-size="14.00" fill="green">Actions by speaker</text>
</g>
<!-- start -->
<g id="node2" class="node"><title>start</title>
<ellipse fill="none" stroke="black" cx="189" cy="-594.298" rx="27.0966" ry="27.0966"/>
<text text-anchor="middle" x="189" y="-590.598" font-family="Times,serif" font-size="14.00">Start</text>
</g>
<!-- submitted -->
<g id="node3" class="node"><title>submitted</title>
<polygon fill="none" stroke="black" points="225.5,-516 152.5,-516 152.5,-480 225.5,-480 225.5,-516"/>
<text text-anchor="middle" x="189" y="-494.3" font-family="Times,serif" font-size="14.00">Submitted</text>
</g>
<!-- start&#45;&gt;submitted -->
<g id="edge1" class="edge"><title>start&#45;&gt;submitted</title>
<path fill="none" stroke="green" d="M189,-566.78C189,-554.097 189,-538.934 189,-526.169"/>
<polygon fill="green" stroke="green" points="192.5,-526.117 189,-516.117 185.5,-526.117 192.5,-526.117"/>
<text text-anchor="middle" x="246.5" y="-537.8" font-family="Times,serif" font-size="14.00">Speaker submits talk</text>
</g>
<!-- pending -->
<g id="node4" class="node"><title>pending</title>
<polygon fill="none" stroke="black" points="215.5,-210 154.5,-210 154.5,-174 215.5,-174 215.5,-210"/>
<text text-anchor="middle" x="185" y="-188.3" font-family="Times,serif" font-size="14.00">Pending</text>
</g>
<!-- submitted&#45;&gt;pending -->
<g id="edge2" class="edge"><title>submitted&#45;&gt;pending</title>
<path fill="none" stroke="blue" d="M170.333,-479.699C145.89,-455.632 104.243,-409.406 88,-360 69.8431,-304.773 120.778,-247.749 155.542,-216.696"/>
<polygon fill="blue" stroke="blue" points="157.868,-219.312 163.116,-210.108 153.274,-214.03 157.868,-219.312"/>
<text text-anchor="middle" x="127.5" y="-341.3" font-family="Times,serif" font-size="14.00">Talk approved</text>
</g>
<!-- pendingreserve -->
<g id="node7" class="node"><title>pendingreserve</title>
<polygon fill="none" stroke="black" points="368,-414 264,-414 264,-378 368,-378 368,-414"/>
<text text-anchor="middle" x="316" y="-392.3" font-family="Times,serif" font-size="14.00">Pending reserve</text>
</g>
<!-- submitted&#45;&gt;pendingreserve -->
<g id="edge7" class="edge"><title>submitted&#45;&gt;pendingreserve</title>
<path fill="none" stroke="blue" d="M210.832,-479.809C231.55,-463.496 262.862,-438.841 285.935,-420.673"/>
<polygon fill="blue" stroke="blue" points="288.336,-423.237 294.028,-414.301 284.006,-417.738 288.336,-423.237"/>
<text text-anchor="middle" x="301" y="-450.8" font-family="Times,serif" font-size="14.00">Talk to</text>
<text text-anchor="middle" x="301" y="-435.8" font-family="Times,serif" font-size="14.00">reserve list</text>
</g>
<!-- rejected -->
<g id="node8" class="node"><title>rejected</title>
<polygon fill="none" stroke="black" points="377,-36 285,-36 285,-0 377,-0 377,-36"/>
<text text-anchor="middle" x="331" y="-14.3" font-family="Times,serif" font-size="14.00">Not Accepted</text>
</g>
<!-- submitted&#45;&gt;rejected -->
<g id="edge6" class="edge"><title>submitted&#45;&gt;rejected</title>
<path fill="none" stroke="blue" d="M152.11,-493.872C97.1078,-486.963 0,-465.119 0,-397 0,-397 0,-397 0,-104 0,-47.9577 180.258,-28.3396 274.727,-21.9063"/>
<polygon fill="blue" stroke="blue" points="275.225,-25.3814 284.976,-21.2372 274.769,-18.3962 275.225,-25.3814"/>
<text text-anchor="middle" x="36" y="-239.3" font-family="Times,serif" font-size="14.00">Talk rejected</text>
</g>
<!-- pending&#45;&gt;submitted -->
<g id="edge5" class="edge"><title>pending&#45;&gt;submitted</title>
<path fill="none" stroke="blue" d="M185.224,-210.027C185.885,-260.259 187.831,-408.164 188.641,-469.679"/>
<polygon fill="blue" stroke="blue" points="185.142,-469.832 188.773,-479.785 192.142,-469.739 185.142,-469.832"/>
<text text-anchor="middle" x="233.5" y="-341.3" font-family="Times,serif" font-size="14.00">Talk unapproved</text>
</g>
<!-- approved -->
<g id="node5" class="node"><title>approved</title>
<polygon fill="none" stroke="black" points="366.5,-123 295.5,-123 295.5,-87 366.5,-87 366.5,-123"/>
<text text-anchor="middle" x="331" y="-101.3" font-family="Times,serif" font-size="14.00">Approved</text>
</g>
<!-- pending&#45;&gt;approved -->
<g id="edge3" class="edge"><title>pending&#45;&gt;approved</title>
<path fill="none" stroke="green" d="M193.15,-173.887C199.154,-163 208.301,-149.414 220,-141 242.948,-124.495 254.058,-131.551 281,-123 282.447,-122.541 283.917,-122.069 285.399,-121.59"/>
<polygon fill="green" stroke="green" points="286.872,-124.79 295.279,-118.343 284.686,-118.14 286.872,-124.79"/>
<text text-anchor="middle" x="268.5" y="-144.8" font-family="Times,serif" font-size="14.00">Speaker confirms</text>
</g>
<!-- pending&#45;&gt;rejected -->
<g id="edge4" class="edge"><title>pending&#45;&gt;rejected</title>
<path fill="none" stroke="green" d="M181.923,-173.834C178.939,-151.716 177.14,-113.022 195,-87 213.655,-59.8195 246.474,-42.9755 275.198,-32.8514"/>
<polygon fill="green" stroke="green" points="276.372,-36.1493 284.756,-29.6704 274.162,-29.5074 276.372,-36.1493"/>
<text text-anchor="middle" x="241" y="-101.3" font-family="Times,serif" font-size="14.00">Speaker declines</text>
</g>
<!-- approved&#45;&gt;rejected -->
<g id="edge11" class="edge"><title>approved&#45;&gt;rejected</title>
<path fill="none" stroke="blue" d="M331,-86.799C331,-75.1626 331,-59.5479 331,-46.2368"/>
<polygon fill="blue" stroke="blue" points="334.5,-46.1754 331,-36.1754 327.5,-46.1755 334.5,-46.1754"/>
<text text-anchor="middle" x="383" y="-57.8" font-family="Times,serif" font-size="14.00">Speaker withdraws</text>
</g>
<!-- reserve -->
<g id="node6" class="node"><title>reserve</title>
<polygon fill="none" stroke="black" points="346,-312 286,-312 286,-276 346,-276 346,-312"/>
<text text-anchor="middle" x="316" y="-290.3" font-family="Times,serif" font-size="14.00">Reserve</text>
</g>
<!-- reserve&#45;&gt;pending -->
<g id="edge10" class="edge"><title>reserve&#45;&gt;pending</title>
<path fill="none" stroke="blue" d="M285.689,-289.596C262.878,-285.572 232.195,-276.847 212,-258 201.285,-248.001 194.684,-233.104 190.693,-220.093"/>
<polygon fill="blue" stroke="blue" points="194.007,-218.936 188.024,-210.192 187.248,-220.759 194.007,-218.936"/>
<text text-anchor="middle" x="268" y="-246.8" font-family="Times,serif" font-size="14.00">Normal activate talk</text>
<text text-anchor="middle" x="268" y="-231.8" font-family="Times,serif" font-size="14.00"> from reserve list</text>
</g>
<!-- reserve&#45;&gt;approved -->
<g id="edge13" class="edge"><title>reserve&#45;&gt;approved</title>
<path fill="none" stroke="blue" d="M320.606,-275.666C321.921,-270.067 323.209,-263.806 324,-258 329.874,-214.872 331.086,-164.295 331.205,-133.723"/>
<polygon fill="blue" stroke="blue" points="334.705,-133.416 331.205,-123.416 327.705,-133.416 334.705,-133.416"/>
<text text-anchor="middle" x="386" y="-195.8" font-family="Times,serif" font-size="14.00">Last minute activate</text>
<text text-anchor="middle" x="386" y="-180.8" font-family="Times,serif" font-size="14.00">from reserve</text>
</g>
<!-- pendingreserve&#45;&gt;reserve -->
<g id="edge8" class="edge"><title>pendingreserve&#45;&gt;reserve</title>
<path fill="none" stroke="green" d="M316,-377.581C316,-362.382 316,-340.067 316,-322.464"/>
<polygon fill="green" stroke="green" points="319.5,-322.219 316,-312.219 312.5,-322.219 319.5,-322.219"/>
<text text-anchor="middle" x="371.5" y="-348.8" font-family="Times,serif" font-size="14.00">Speaker confirms to</text>
<text text-anchor="middle" x="371.5" y="-333.8" font-family="Times,serif" font-size="14.00">reserve list</text>
</g>
<!-- pendingreserve&#45;&gt;rejected -->
<g id="edge9" class="edge"><title>pendingreserve&#45;&gt;rejected</title>
<path fill="none" stroke="green" d="M368.022,-385.658C415.725,-373.741 479,-347.954 479,-295 479,-295 479,-295 479,-104 479,-59.8354 428.829,-38.2844 386.91,-27.9858"/>
<polygon fill="green" stroke="green" points="387.546,-24.541 377.017,-25.72 385.983,-31.3643 387.546,-24.541"/>
<text text-anchor="middle" x="525" y="-188.3" font-family="Times,serif" font-size="14.00">Speaker declines</text>
</g>
<!-- rejected&#45;&gt;submitted -->
<g id="edge12" class="edge"><title>rejected&#45;&gt;submitted</title>
<path fill="none" stroke="blue" d="M377.071,-24.0168C453.696,-33.6542 599,-57.9948 599,-104 599,-397 599,-397 599,-397 599,-471.008 343.669,-490.485 235.996,-495.408"/>
<polygon fill="blue" stroke="blue" points="235.584,-491.923 225.746,-495.853 235.888,-498.916 235.584,-491.923"/>
<text text-anchor="middle" x="643" y="-239.3" font-family="Times,serif" font-size="14.00">Processing reset</text>
</g>
</g>
</svg>
