<?xml version="1.0" encoding="UTF-8" standalone="no"?>
<!DOCTYPE svg PUBLIC "-//W3C//DTD SVG 1.1//EN"
 "http://www.w3.org/Graphics/SVG/1.1/DTD/svg11.dtd">
<!-- Generated by graphviz version 2.40.1 (20161225.0304)
 -->
<!-- Title: talkstates Pages: 1 -->
<svg width="750pt" height="630pt"
 viewBox="0.00 0.00 750.00 629.60" xmlns="http://www.w3.org/2000/svg" xmlns:xlink="http://www.w3.org/1999/xlink">
<g id="graph0" class="graph" transform="scale(1 1) rotate(0) translate(4 625.5952)">
<title>talkstates</title>
<polygon fill="#ffffff" stroke="transparent" points="-4,4 -4,-625.5952 746,-625.5952 746,4 -4,4"/>
<!-- key -->
<g id="node1" class="node">
<title>key</title>
<polygon fill="none" stroke="#000000" points="143.5,-612.2976 6.5,-612.2976 6.5,-576.2976 143.5,-576.2976 143.5,-612.2976"/>
<text text-anchor="start" x="18" y="-598.0976" font-family="Times,serif" font-size="14.00" fill="#000000"> &#160;&#160;&#160;</text>
<text text-anchor="start" x="34" y="-598.0976" font-family="Times,serif" font-size="14.00" fill="#0000ff">Actions by admin</text>
<text text-anchor="start" x="14.5" y="-584.0976" font-family="Times,serif" font-size="14.00" fill="#000000"> &#160;&#160;&#160;</text>
<text text-anchor="start" x="30.5" y="-584.0976" font-family="Times,serif" font-size="14.00" fill="#00ff00">Actions by speaker</text>
</g>
<!-- start -->
<g id="node2" class="node">
<title>start</title>
<ellipse fill="none" stroke="#000000" cx="189" cy="-594.2976" rx="27.0966" ry="27.0966"/>
<text text-anchor="middle" x="189" y="-590.5976" font-family="Times,serif" font-size="14.00" fill="#000000">Start</text>
</g>
<!-- submitted -->
<g id="node3" class="node">
<title>submitted</title>
<polygon fill="none" stroke="#000000" points="225.5,-516 152.5,-516 152.5,-480 225.5,-480 225.5,-516"/>
<text text-anchor="middle" x="189" y="-494.3" font-family="Times,serif" font-size="14.00" fill="#000000">Submitted</text>
</g>
<!-- start&#45;&gt;submitted -->
<g id="edge1" class="edge">
<title>start&#45;&gt;submitted</title>
<path fill="none" stroke="#00ff00" d="M189,-566.9601C189,-554.2752 189,-539.204 189,-526.3911"/>
<polygon fill="#00ff00" stroke="#00ff00" points="192.5001,-526.2614 189,-516.2615 185.5001,-526.2615 192.5001,-526.2614"/>
<text text-anchor="middle" x="246.5" y="-537.8" font-family="Times,serif" font-size="14.00" fill="#000000">Speaker submits talk</text>
</g>
<!-- pending -->
<g id="node4" class="node">
<title>pending</title>
<polygon fill="none" stroke="#000000" points="197.5,-210 136.5,-210 136.5,-174 197.5,-174 197.5,-210"/>
<text text-anchor="middle" x="167" y="-188.3" font-family="Times,serif" font-size="14.00" fill="#000000">Pending</text>
</g>
<!-- submitted&#45;&gt;pending -->
<g id="edge2" class="edge">
<title>submitted&#45;&gt;pending</title>
<path fill="none" stroke="#0000ff" d="M169.4907,-479.7081C144.9411,-455.2095 104.0494,-409.1035 88,-360 70.8305,-307.4695 112.1032,-249.9387 141.2317,-217.6729"/>
<polygon fill="#0000ff" stroke="#0000ff" points="144.0886,-219.7401 148.3326,-210.0324 138.9611,-214.9747 144.0886,-219.7401"/>
<text text-anchor="middle" x="127.5" y="-341.3" font-family="Times,serif" font-size="14.00" fill="#000000">Talk approved</text>
</g>
<!-- pendingreserve -->
<g id="node7" class="node">
<title>pendingreserve</title>
<polygon fill="none" stroke="#000000" points="379,-414 275,-414 275,-378 379,-378 379,-414"/>
<text text-anchor="middle" x="327" y="-392.3" font-family="Times,serif" font-size="14.00" fill="#000000">Pending reserve</text>
</g>
<!-- submitted&#45;&gt;pendingreserve -->
<g id="edge7" class="edge">
<title>submitted&#45;&gt;pendingreserve</title>
<path fill="none" stroke="#0000ff" d="M213.354,-479.9992C235.878,-463.3511 269.5253,-438.4813 294.3671,-420.12"/>
<polygon fill="#0000ff" stroke="#0000ff" points="296.4639,-422.9225 302.4253,-414.1639 292.3031,-417.2932 296.4639,-422.9225"/>
<text text-anchor="middle" x="304" y="-450.8" font-family="Times,serif" font-size="14.00" fill="#000000">Talk to</text>
<text text-anchor="middle" x="304" y="-435.8" font-family="Times,serif" font-size="14.00" fill="#000000">reserve list</text>
</g>
<!-- rejected -->
<g id="node8" class="node">
<title>rejected</title>
<polygon fill="none" stroke="#000000" points="401,-36 309,-36 309,0 401,0 401,-36"/>
<text text-anchor="middle" x="355" y="-14.3" font-family="Times,serif" font-size="14.00" fill="#000000">Not Accepted</text>
</g>
<!-- submitted&#45;&gt;rejected -->
<g id="edge6" class="edge">
<title>submitted&#45;&gt;rejected</title>
<path fill="none" stroke="#0000ff" d="M152.1102,-494.5539C97.1078,-487.1608 0,-464.4198 0,-396 0,-396 0,-396 0,-105 0,-44.2494 198.5946,-25.7053 298.7082,-20.2167"/>
<polygon fill="#0000ff" stroke="#0000ff" points="299.15,-23.6985 308.9539,-19.6817 298.785,-16.708 299.15,-23.6985"/>
<text text-anchor="middle" x="36" y="-239.3" font-family="Times,serif" font-size="14.00" fill="#000000">Talk rejected</text>
</g>
<!-- pending&#45;&gt;submitted -->
<g id="edge5" class="edge">
<title>pending&#45;&gt;submitted</title>
<path fill="none" stroke="#0000ff" d="M168.3034,-210.1298C171.9863,-261.3544 182.4908,-407.4626 186.9539,-469.5405"/>
<polygon fill="#0000ff" stroke="#0000ff" points="183.4815,-470.0515 187.6897,-479.7747 190.4635,-469.5494 183.4815,-470.0515"/>
<text text-anchor="middle" x="226.5" y="-341.3" font-family="Times,serif" font-size="14.00" fill="#000000">Talk unapproved</text>
</g>
<!-- approved -->
<g id="node5" class="node">
<title>approved</title>
<polygon fill="none" stroke="#000000" points="331.5,-123 260.5,-123 260.5,-87 331.5,-87 331.5,-123"/>
<text text-anchor="middle" x="296" y="-101.3" font-family="Times,serif" font-size="14.00" fill="#000000">Approved</text>
</g>
<!-- pending&#45;&gt;approved -->
<g id="edge3" class="edge">
<title>pending&#45;&gt;approved</title>
<path fill="none" stroke="#00ff00" d="M169.2504,-173.6999C171.505,-162.8243 176.0097,-149.5316 185,-141 205.504,-121.5424 219.135,-131.791 246,-123 247.4523,-122.5248 248.9259,-122.0357 250.4121,-121.5366"/>
<polygon fill="#00ff00" stroke="#00ff00" points="251.9885,-124.6958 260.3085,-118.1362 249.7138,-118.0757 251.9885,-124.6958"/>
<text text-anchor="middle" x="233.5" y="-144.8" font-family="Times,serif" font-size="14.00" fill="#000000">Speaker confirms</text>
</g>
<!-- pending&#45;&gt;rejected -->
<g id="edge4" class="edge">
<title>pending&#45;&gt;rejected</title>
<path fill="none" stroke="#00ff00" d="M159.3747,-173.7921C151.2561,-151.2379 141.8608,-112.6598 160,-87 176.4216,-63.7699 247.2081,-42.8646 298.7769,-30.3044"/>
<polygon fill="#00ff00" stroke="#00ff00" points="299.9005,-33.6345 308.8127,-27.9054 298.2729,-26.8263 299.9005,-33.6345"/>
<text text-anchor="middle" x="206" y="-101.3" font-family="Times,serif" font-size="14.00" fill="#000000">Speaker declines</text>
</g>
<!-- approved&#45;&gt;rejected -->
<g id="edge11" class="edge">
<title>approved&#45;&gt;rejected</title>
<path fill="none" stroke="#0000ff" d="M292.2945,-86.8886C291.1427,-76.6015 291.3927,-63.8515 297,-54 299.4018,-49.7803 302.5203,-45.9892 306.0646,-42.5975"/>
<polygon fill="#0000ff" stroke="#0000ff" points="308.3523,-45.2477 313.8445,-36.1875 303.9011,-39.8452 308.3523,-45.2477"/>
<text text-anchor="middle" x="349" y="-57.8" font-family="Times,serif" font-size="14.00" fill="#000000">Speaker withdraws</text>
</g>
<!-- reserve -->
<g id="node6" class="node">
<title>reserve</title>
<polygon fill="none" stroke="#000000" points="357,-312 297,-312 297,-276 357,-276 357,-312"/>
<text text-anchor="middle" x="327" y="-290.3" font-family="Times,serif" font-size="14.00" fill="#000000">Reserve</text>
</g>
<!-- reserve&#45;&gt;pending -->
<g id="edge10" class="edge">
<title>reserve&#45;&gt;pending</title>
<path fill="none" stroke="#0000ff" d="M296.9374,-288.2791C264.5403,-281.6242 215.6468,-270.0075 201,-258 189.0852,-248.2322 180.8845,-233.1971 175.527,-219.943"/>
<polygon fill="#0000ff" stroke="#0000ff" points="178.7067,-218.4486 171.97,-210.2714 172.1369,-220.8649 178.7067,-218.4486"/>
<text text-anchor="middle" x="257" y="-246.8" font-family="Times,serif" font-size="14.00" fill="#000000">Normal activate talk</text>
<text text-anchor="middle" x="257" y="-231.8" font-family="Times,serif" font-size="14.00" fill="#000000"> from reserve list</text>
</g>
<!-- reserve&#45;&gt;approved -->
<g id="edge13" class="edge">
<title>reserve&#45;&gt;approved</title>
<path fill="none" stroke="#0000ff" d="M322.9303,-275.7131C319.2411,-258.741 313.8135,-232.745 310,-210 305.6556,-184.0884 301.8,-154.397 299.2407,-133.2142"/>
<polygon fill="#0000ff" stroke="#0000ff" points="302.7141,-132.7827 298.0584,-123.2656 295.763,-133.6088 302.7141,-132.7827"/>
<text text-anchor="middle" x="366" y="-195.8" font-family="Times,serif" font-size="14.00" fill="#000000">Last minute activate</text>
<text text-anchor="middle" x="366" y="-180.8" font-family="Times,serif" font-size="14.00" fill="#000000">from reserve</text>
</g>
<!-- reserve&#45;&gt;rejected -->
<g id="edge14" class="edge">
<title>reserve&#45;&gt;rejected</title>
<path fill="none" stroke="#0000ff" d="M357.2318,-277.0328C379.7518,-262.5054 408.794,-239.3049 422,-210 428.5736,-195.4128 424.5629,-189.7934 422,-174 420.6492,-165.6761 417.9543,-164.2032 416,-156 405.3808,-111.4266 424.0208,-93.6182 401,-54 398.7025,-50.0461 395.7871,-46.3681 392.5428,-42.9915"/>
<polygon fill="#0000ff" stroke="#0000ff" points="394.7604,-40.2761 385.0272,-36.091 390.0262,-45.4324 394.7604,-40.2761"/>
<text text-anchor="middle" x="468" y="-144.8" font-family="Times,serif" font-size="14.00" fill="#000000">Speaker withdraws</text>
</g>
<!-- pendingreserve&#45;&gt;reserve -->
<g id="edge8" class="edge">
<title>pendingreserve&#45;&gt;reserve</title>
<path fill="none" stroke="#00ff00" d="M327,-377.7644C327,-362.317 327,-339.9149 327,-322.164"/>
<polygon fill="#00ff00" stroke="#00ff00" points="330.5001,-322.0776 327,-312.0777 323.5001,-322.0777 330.5001,-322.0776"/>
<text text-anchor="middle" x="382.5" y="-348.8" font-family="Times,serif" font-size="14.00" fill="#000000">Speaker confirms to</text>
<text text-anchor="middle" x="382.5" y="-333.8" font-family="Times,serif" font-size="14.00" fill="#000000">reserve list</text>
</g>
<!-- pendingreserve&#45;&gt;rejected -->
<g id="edge9" class="edge">
<title>pendingreserve&#45;&gt;rejected</title>
<path fill="none" stroke="#00ff00" d="M379.0282,-383.5206C399.2484,-377.701 422.2509,-369.8547 442,-360 487.0279,-337.5314 534,-344.3224 534,-294 534,-294 534,-294 534,-105 534,-77.1886 463.2185,-49.9523 410.6746,-33.5652"/>
<polygon fill="#00ff00" stroke="#00ff00" points="411.6834,-30.2138 401.0969,-30.634 409.6348,-36.9073 411.6834,-30.2138"/>
<text text-anchor="middle" x="580" y="-188.3" font-family="Times,serif" font-size="14.00" fill="#000000">Speaker declines</text>
</g>
<!-- rejected&#45;&gt;submitted -->
<g id="edge12" class="edge">
<title>rejected&#45;&gt;submitted</title>
<path fill="none" stroke="#0000ff" d="M401.0635,-21.7983C484.9354,-29.993 654,-52.9648 654,-105 654,-396 654,-396 654,-396 654,-438.4703 354.2269,-478.4971 236.0656,-492.6249"/>
<polygon fill="#0000ff" stroke="#0000ff" points="235.3949,-489.1798 225.8764,-493.8326 236.2189,-496.1311 235.3949,-489.1798"/>
<text text-anchor="middle" x="698" y="-239.3" font-family="Times,serif" font-size="14.00" fill="#000000">Processing reset</text>
</g>
</g>
</svg>
