<?xml version="1.0" encoding="UTF-8" standalone="no"?>
<!DOCTYPE svg PUBLIC "-//W3C//DTD SVG 1.1//EN"
 "http://www.w3.org/Graphics/SVG/1.1/DTD/svg11.dtd">
<!-- Generated by graphviz version 2.43.0 (0)
 -->
<!-- Title: talkstates Pages: 1 -->
<svg width="920pt" height="644pt"
 viewBox="0.00 0.00 920.00 643.89" xmlns="http://www.w3.org/2000/svg" xmlns:xlink="http://www.w3.org/1999/xlink">
<g id="graph0" class="graph" transform="scale(1 1) rotate(0) translate(4 639.89)">
<title>talkstates</title>
<polygon fill="white" stroke="transparent" points="-4,4 -4,-639.89 916,-639.89 916,4 -4,4"/>
<!-- key -->
<g id="node1" class="node">
<title>key</title>
<polygon fill="none" stroke="black" points="241.5,-619.45 70.5,-619.45 70.5,-583.45 241.5,-583.45 241.5,-619.45"/>
<text text-anchor="start" x="84.5" y="-605.25" font-family="Times,serif" font-size="14.00"> &#160;&#160;&#160;</text>
<text text-anchor="start" x="103.5" y="-605.25" font-family="Times,serif" font-size="14.00" fill="blue">Actions by admin</text>
<text text-anchor="start" x="78.5" y="-591.25" font-family="Times,serif" font-size="14.00"> &#160;&#160;&#160;</text>
<text text-anchor="start" x="97.5" y="-591.25" font-family="Times,serif" font-size="14.00" fill="green">Actions by speaker</text>
</g>
<!-- start -->
<g id="node2" class="node">
<title>start</title>
<ellipse fill="none" stroke="black" cx="294" cy="-601.45" rx="34.39" ry="34.39"/>
<text text-anchor="middle" x="294" y="-597.75" font-family="Times,serif" font-size="14.00">Start</text>
</g>
<!-- submitted -->
<g id="node3" class="node">
<title>submitted</title>
<polygon fill="none" stroke="black" points="340,-516 248,-516 248,-480 340,-480 340,-516"/>
<text text-anchor="middle" x="294" y="-494.3" font-family="Times,serif" font-size="14.00">Submitted</text>
</g>
<!-- start&#45;&gt;submitted -->
<g id="edge1" class="edge">
<title>start&#45;&gt;submitted</title>
<path fill="none" stroke="green" d="M294,-566.95C294,-553.82 294,-538.96 294,-526.48"/>
<polygon fill="green" stroke="green" points="297.5,-526.24 294,-516.24 290.5,-526.24 297.5,-526.24"/>
<text text-anchor="middle" x="370" y="-537.8" font-family="Times,serif" font-size="14.00">Speaker submits talk</text>
</g>
<!-- pending -->
<g id="node4" class="node">
<title>pending</title>
<polygon fill="none" stroke="black" points="314,-210 240,-210 240,-174 314,-174 314,-210"/>
<text text-anchor="middle" x="277" y="-188.3" font-family="Times,serif" font-size="14.00">Pending</text>
</g>
<!-- submitted&#45;&gt;pending -->
<g id="edge2" class="edge">
<title>submitted&#45;&gt;pending</title>
<path fill="none" stroke="blue" d="M266.48,-479.99C232.83,-457.38 177.56,-413.92 155,-360 130.9,-302.4 195.84,-245.99 239.97,-215.74"/>
<polygon fill="blue" stroke="blue" points="242.12,-218.51 248.49,-210.04 238.23,-212.69 242.12,-218.51"/>
<text text-anchor="middle" x="205.5" y="-341.3" font-family="Times,serif" font-size="14.00">Talk approved</text>
</g>
<!-- pendingreserve -->
<g id="node7" class="node">
<title>pendingreserve</title>
<polygon fill="none" stroke="black" points="490.5,-414 357.5,-414 357.5,-378 490.5,-378 490.5,-414"/>
<text text-anchor="middle" x="424" y="-392.3" font-family="Times,serif" font-size="14.00">Pending reserve</text>
</g>
<!-- submitted&#45;&gt;pendingreserve -->
<g id="edge4" class="edge">
<title>submitted&#45;&gt;pendingreserve</title>
<path fill="none" stroke="blue" d="M294.37,-479.87C295.6,-465.31 299.62,-444.79 312,-432 321.75,-421.93 334.34,-414.74 347.56,-409.62"/>
<polygon fill="blue" stroke="blue" points="348.96,-412.84 357.25,-406.24 346.66,-406.22 348.96,-412.84"/>
<text text-anchor="middle" x="353" y="-450.8" font-family="Times,serif" font-size="14.00">Talk to</text>
<text text-anchor="middle" x="353" y="-435.8" font-family="Times,serif" font-size="14.00">reserve list</text>
</g>
<!-- notaccepted -->
<g id="node8" class="node">
<title>notaccepted</title>
<polygon fill="none" stroke="black" points="621.5,-414 508.5,-414 508.5,-378 621.5,-378 621.5,-414"/>
<text text-anchor="middle" x="565" y="-392.3" font-family="Times,serif" font-size="14.00">Not Accepted</text>
</g>
<!-- submitted&#45;&gt;notaccepted -->
<g id="edge3" class="edge">
<title>submitted&#45;&gt;notaccepted</title>
<path fill="none" stroke="blue" d="M340.25,-486.89C358.16,-481.48 378.13,-473.49 394,-462 407.61,-452.15 402.81,-441 417,-432 446.39,-413.36 460.93,-421.25 498.3,-414.13"/>
<polygon fill="blue" stroke="blue" points="499.28,-417.5 508.32,-411.98 497.8,-410.66 499.28,-417.5"/>
<text text-anchor="middle" x="480" y="-443.3" font-family="Times,serif" font-size="14.00">Talk not accepted</text>
</g>
<!-- withdrawn -->
<g id="node9" class="node">
<title>withdrawn</title>
<polygon fill="none" stroke="black" points="507.5,-36 412.5,-36 412.5,0 507.5,0 507.5,-36"/>
<text text-anchor="middle" x="460" y="-14.3" font-family="Times,serif" font-size="14.00">Withdrawn</text>
</g>
<!-- submitted&#45;&gt;withdrawn -->
<g id="edge5" class="edge">
<title>submitted&#45;&gt;withdrawn</title>
<path fill="none" stroke="blue" d="M247.74,-491.03C164.94,-479.05 0,-448.69 0,-397 0,-397 0,-397 0,-104 0,-63.57 278.38,-34.6 402.02,-23.73"/>
<polygon fill="blue" stroke="blue" points="402.41,-27.21 412.07,-22.86 401.81,-20.24 402.41,-27.21"/>
<text text-anchor="middle" x="69.5" y="-239.3" font-family="Times,serif" font-size="14.00">Speaker withdraws</text>
</g>
<!-- pending&#45;&gt;submitted -->
<g id="edge10" class="edge">
<title>pending&#45;&gt;submitted</title>
<path fill="none" stroke="blue" d="M277.95,-210.03C280.76,-260.26 289.03,-408.16 292.47,-469.68"/>
<polygon fill="blue" stroke="blue" points="288.98,-470 293.04,-479.78 295.97,-469.6 288.98,-470"/>
<text text-anchor="middle" x="346.5" y="-341.3" font-family="Times,serif" font-size="14.00">Talk unapproved</text>
</g>
<!-- approved -->
<g id="node5" class="node">
<title>approved</title>
<polygon fill="none" stroke="black" points="502.5,-123 417.5,-123 417.5,-87 502.5,-87 502.5,-123"/>
<text text-anchor="middle" x="460" y="-101.3" font-family="Times,serif" font-size="14.00">Approved</text>
</g>
<!-- pending&#45;&gt;approved -->
<g id="edge8" class="edge">
<title>pending&#45;&gt;approved</title>
<path fill="none" stroke="green" d="M287.67,-173.59C295.32,-162.58 306.62,-148.97 320,-141 352.43,-121.69 366.44,-132.4 403,-123 404.47,-122.62 405.96,-122.23 407.46,-121.83"/>
<polygon fill="green" stroke="green" points="408.75,-125.11 417.46,-119.07 406.89,-118.36 408.75,-125.11"/>
<text text-anchor="middle" x="383" y="-144.8" font-family="Times,serif" font-size="14.00">Speaker confirms</text>
</g>
<!-- pending&#45;&gt;withdrawn -->
<g id="edge9" class="edge">
<title>pending&#45;&gt;withdrawn</title>
<path fill="none" stroke="blue" d="M273.43,-173.98C269.77,-151.67 267,-112.4 286,-87 313.26,-50.57 362.89,-33.64 402.19,-25.79"/>
<polygon fill="blue" stroke="blue" points="403.01,-29.2 412.2,-23.94 401.73,-22.31 403.01,-29.2"/>
<text text-anchor="middle" x="347" y="-101.3" font-family="Times,serif" font-size="14.00">Speaker declines</text>
</g>
<!-- approved&#45;&gt;withdrawn -->
<g id="edge6" class="edge">
<title>approved&#45;&gt;withdrawn</title>
<path fill="none" stroke="blue" d="M460,-86.8C460,-75.16 460,-59.55 460,-46.24"/>
<polygon fill="blue" stroke="blue" points="463.5,-46.18 460,-36.18 456.5,-46.18 463.5,-46.18"/>
<text text-anchor="middle" x="529.5" y="-57.8" font-family="Times,serif" font-size="14.00">Speaker withdraws</text>
</g>
<!-- reserve -->
<g id="node6" class="node">
<title>reserve</title>
<polygon fill="none" stroke="black" points="491,-312 417,-312 417,-276 491,-276 491,-312"/>
<text text-anchor="middle" x="454" y="-290.3" font-family="Times,serif" font-size="14.00">Reserve</text>
</g>
<!-- reserve&#45;&gt;pending -->
<g id="edge11" class="edge">
<title>reserve&#45;&gt;pending</title>
<path fill="none" stroke="blue" d="M416.83,-293.27C383.92,-291.61 336.37,-284.28 305,-258 293.52,-248.38 286.62,-233.18 282.55,-219.9"/>
<polygon fill="blue" stroke="blue" points="285.93,-218.99 279.95,-210.24 279.17,-220.8 285.93,-218.99"/>
<text text-anchor="middle" x="378.5" y="-246.8" font-family="Times,serif" font-size="14.00">Normal activate talk</text>
<text text-anchor="middle" x="378.5" y="-231.8" font-family="Times,serif" font-size="14.00"> from reserve list</text>
</g>
<!-- reserve&#45;&gt;approved -->
<g id="edge12" class="edge">
<title>reserve&#45;&gt;approved</title>
<path fill="none" stroke="blue" d="M454.55,-275.74C455.6,-243.18 457.87,-172.44 459.12,-133.35"/>
<polygon fill="blue" stroke="blue" points="462.63,-133.32 459.45,-123.22 455.63,-133.1 462.63,-133.32"/>
<text text-anchor="middle" x="531" y="-195.8" font-family="Times,serif" font-size="14.00">Last minute activate</text>
<text text-anchor="middle" x="531" y="-180.8" font-family="Times,serif" font-size="14.00">from reserve</text>
</g>
<!-- reserve&#45;&gt;withdrawn -->
<g id="edge13" class="edge">
<title>reserve&#45;&gt;withdrawn</title>
<path fill="none" stroke="blue" d="M491.07,-284.81C528.27,-274.39 583.59,-252.42 609,-210 627,-179.94 654.29,-116.1 603,-54 591.96,-40.64 552.49,-31.61 517.81,-26.08"/>
<polygon fill="blue" stroke="blue" points="518.12,-22.58 507.71,-24.54 517.07,-29.5 518.12,-22.58"/>
<text text-anchor="middle" x="701.5" y="-144.8" font-family="Times,serif" font-size="14.00">Speaker withdraws</text>
</g>
<!-- pendingreserve&#45;&gt;reserve -->
<g id="edge14" class="edge">
<title>pendingreserve&#45;&gt;reserve</title>
<path fill="none" stroke="green" d="M429.23,-377.58C433.83,-362.24 440.61,-339.65 445.91,-321.97"/>
<polygon fill="green" stroke="green" points="449.31,-322.8 448.83,-312.22 442.61,-320.79 449.31,-322.8"/>
<text text-anchor="middle" x="515.5" y="-348.8" font-family="Times,serif" font-size="14.00">Speaker confirms to</text>
<text text-anchor="middle" x="515.5" y="-333.8" font-family="Times,serif" font-size="14.00">reserve list</text>
</g>
<!-- pendingreserve&#45;&gt;withdrawn -->
<g id="edge15" class="edge">
<title>pendingreserve&#45;&gt;withdrawn</title>
<path fill="none" stroke="blue" d="M490.71,-379.97C493.85,-379.3 496.96,-378.64 500,-378 631.21,-350.49 790,-429.06 790,-295 790,-295 790,-295 790,-104 790,-48.42 612.21,-28.64 517.63,-22.04"/>
<polygon fill="blue" stroke="blue" points="517.84,-18.55 507.63,-21.38 517.38,-25.54 517.84,-18.55"/>
<text text-anchor="middle" x="851" y="-188.3" font-family="Times,serif" font-size="14.00">Speaker declines</text>
</g>
<!-- notaccepted&#45;&gt;submitted -->
<g id="edge7" class="edge">
<title>notaccepted&#45;&gt;submitted</title>
<path fill="none" stroke="blue" d="M564.03,-414.16C562.22,-429.15 557.13,-450.29 543,-462 514.54,-485.58 414.8,-493.28 350.52,-495.79"/>
<polygon fill="blue" stroke="blue" points="350,-492.31 340.13,-496.16 350.25,-499.3 350,-492.31"/>
<text text-anchor="middle" x="620" y="-443.3" font-family="Times,serif" font-size="14.00">Processing reset</text>
</g>
</g>
</svg>
