<?xml version="1.0" encoding="UTF-8" standalone="no"?>
<!DOCTYPE svg PUBLIC "-//W3C//DTD SVG 1.1//EN"
 "http://www.w3.org/Graphics/SVG/1.1/DTD/svg11.dtd">
<!-- Generated by graphviz version 2.38.0 (20140413.2041)
 -->
<!-- Title: waitlist Pages: 1 -->
<svg width="601pt" height="474pt"
 viewBox="0.00 0.00 600.56 473.89" xmlns="http://www.w3.org/2000/svg" xmlns:xlink="http://www.w3.org/1999/xlink">
<g id="graph0" class="graph" transform="scale(1 1) rotate(0) translate(4 469.89)">
<title>waitlist</title>
<polygon fill="white" stroke="none" points="-4,4 -4,-469.89 596.563,-469.89 596.563,4 -4,4"/>
<!-- key -->
<g id="node1" class="node"><title>key</title>
<polygon fill="none" stroke="black" points="317.063,-429.945 176.063,-429.945 176.063,-393.945 317.063,-393.945 317.063,-429.945"/>
<text text-anchor="start" x="189.563" y="-415.745" font-family="Times,serif" font-size="14.00"> &#160;&#160;&#160;</text>
<text text-anchor="start" x="205.563" y="-415.745" font-family="Times,serif" font-size="14.00" fill="blue">Actions by admin</text>
<text text-anchor="start" x="184.063" y="-401.745" font-family="Times,serif" font-size="14.00"> &#160;&#160;&#160;</text>
<text text-anchor="start" x="200.063" y="-401.745" font-family="Times,serif" font-size="14.00" fill="green">Actions by attendee</text>
</g>
<!-- start -->
<g id="node2" class="node"><title>start</title>
<ellipse fill="none" stroke="black" cx="388.563" cy="-411.945" rx="53.8905" ry="53.8905"/>
<text text-anchor="middle" x="388.563" y="-408.245" font-family="Times,serif" font-size="14.00">Registration</text>
</g>
<!-- waitlist -->
<g id="node3" class="node"><title>waitlist</title>
<polygon fill="none" stroke="black" points="239.063,-307 162.063,-307 162.063,-271 239.063,-271 239.063,-307"/>
<text text-anchor="middle" x="200.563" y="-285.3" font-family="Times,serif" font-size="14.00">On waitlist</text>
</g>
<!-- start&#45;&gt;waitlist -->
<g id="edge1" class="edge"><title>start&#45;&gt;waitlist</title>
<path fill="none" stroke="green" d="M348.86,-374.915C341.646,-368.991 334.035,-363.121 326.563,-358 301.109,-340.555 270.712,-324.039 246.152,-311.653"/>
<polygon fill="green" stroke="green" points="247.559,-308.443 237.048,-307.114 244.436,-314.708 247.559,-308.443"/>
<text text-anchor="middle" x="346.063" y="-328.8" font-family="Times,serif" font-size="14.00">✉ Sign up on WL</text>
</g>
<!-- deleted -->
<g id="node7" class="node"><title>deleted</title>
<polygon fill="none" stroke="black" points="370.563,-133 226.488,-98.5 514.637,-98.5 370.563,-133"/>
<text text-anchor="middle" x="370.563" y="-106.3" font-family="Times,serif" font-size="14.00">Waitlist canceled</text>
</g>
<!-- start&#45;&gt;deleted -->
<g id="edge2" class="edge"><title>start&#45;&gt;deleted</title>
<path fill="none" stroke="green" d="M425.65,-372.084C464.935,-325.974 516.9,-247.367 482.563,-184 468.59,-158.215 441.125,-140.099 416.89,-128.364"/>
<polygon fill="green" stroke="green" points="418.343,-125.18 407.795,-124.176 415.415,-131.538 418.343,-125.18"/>
<text text-anchor="middle" x="542.563" y="-241.8" font-family="Times,serif" font-size="14.00">No interest in WL</text>
</g>
<!-- offer -->
<g id="node4" class="node"><title>offer</title>
<polygon fill="none" stroke="black" points="195.563,-220 115.563,-220 115.563,-184 195.563,-184 195.563,-220"/>
<text text-anchor="middle" x="155.563" y="-198.3" font-family="Times,serif" font-size="14.00">Offer made</text>
</g>
<!-- waitlist&#45;&gt;offer -->
<g id="edge3" class="edge"><title>waitlist&#45;&gt;offer</title>
<path fill="none" stroke="blue" d="M225.557,-270.97C236.355,-261.449 245.002,-249.264 237.563,-238 230.017,-226.575 217.896,-218.867 205.263,-213.671"/>
<polygon fill="blue" stroke="blue" points="206.164,-210.275 195.569,-210.167 203.784,-216.858 206.164,-210.275"/>
<text text-anchor="middle" x="287.563" y="-241.8" font-family="Times,serif" font-size="14.00">✉ Offer extended</text>
</g>
<!-- waitlist&#45;&gt;deleted -->
<g id="edge4" class="edge"><title>waitlist&#45;&gt;deleted</title>
<path fill="none" stroke="blue" d="M239.379,-282.853C275.511,-277.27 325.797,-267.209 339.563,-253 367.877,-223.772 372.82,-175.017 372.601,-142.936"/>
<polygon fill="blue" stroke="blue" points="376.095,-142.66 372.355,-132.747 369.098,-142.829 376.095,-142.66"/>
<text text-anchor="middle" x="424.063" y="-198.3" font-family="Times,serif" font-size="14.00">✉ Waitlist canceled</text>
</g>
<!-- offer&#45;&gt;waitlist -->
<g id="edge5" class="edge"><title>offer&#45;&gt;waitlist</title>
<path fill="none" stroke="black" d="M115.525,-215.848C110.829,-217.283 106.096,-218.696 101.563,-220 71.1046,-228.761 51.9391,-212.92 32.5626,-238 28.4867,-243.276 28.3566,-247.828 32.5626,-253 47.3847,-271.228 107.708,-280.281 151.842,-284.545"/>
<polygon fill="black" stroke="black" points="151.555,-288.033 161.832,-285.456 152.191,-281.062 151.555,-288.033"/>
<text text-anchor="middle" x="76.5626" y="-241.8" font-family="Times,serif" font-size="14.00">✉ Offer expired</text>
</g>
<!-- offer&#45;&gt;waitlist -->
<g id="edge6" class="edge"><title>offer&#45;&gt;waitlist</title>
<path fill="none" stroke="blue" d="M143.178,-220.429C137.716,-230.405 133.716,-242.905 139.563,-253 143.016,-258.963 147.912,-263.998 153.445,-268.224"/>
<polygon fill="blue" stroke="blue" points="151.65,-271.233 161.916,-273.851 155.523,-265.402 151.65,-271.233"/>
<text text-anchor="middle" x="186.563" y="-241.8" font-family="Times,serif" font-size="14.00">✉ Offer canceled</text>
</g>
<!-- invoice -->
<g id="node5" class="node"><title>invoice</title>
<polygon fill="none" stroke="black" points="152.063,-128 39.0626,-128 39.0626,-92 152.063,-92 152.063,-128"/>
<text text-anchor="middle" x="95.5626" y="-106.3" font-family="Times,serif" font-size="14.00">Invoice generated</text>
</g>
<!-- offer&#45;&gt;invoice -->
<g id="edge8" class="edge"><title>offer&#45;&gt;invoice</title>
<path fill="none" stroke="green" d="M128.394,-183.684C122.139,-178.626 116.022,-172.646 111.563,-166 105.947,-157.631 102.271,-147.269 99.8775,-137.803"/>
<polygon fill="green" stroke="green" points="103.296,-137.05 97.7534,-128.02 96.4549,-138.535 103.296,-137.05"/>
<text text-anchor="middle" x="150.563" y="-154.8" font-family="Times,serif" font-size="14.00">Accepted spot</text>
</g>
<!-- offer&#45;&gt;deleted -->
<g id="edge7" class="edge"><title>offer&#45;&gt;deleted</title>
<path fill="none" stroke="green" d="M195.75,-184.177C233.285,-168.465 289.141,-145.083 327.56,-129.001"/>
<polygon fill="green" stroke="green" points="329.057,-132.169 336.93,-125.079 326.354,-125.712 329.057,-132.169"/>
<text text-anchor="middle" x="306.563" y="-154.8" font-family="Times,serif" font-size="14.00">Declined spot</text>
</g>
<!-- invoice&#45;&gt;waitlist -->
<g id="edge10" class="edge"><title>invoice&#45;&gt;waitlist</title>
<path fill="none" stroke="black" d="M62.8045,-128.253C42.8051,-140.771 18.9562,-159.745 7.56259,-184 -5.86584,-212.587 -0.662617,-233.994 24.5626,-253 44.2415,-267.827 106.796,-277.694 151.728,-283.069"/>
<polygon fill="black" stroke="black" points="151.542,-286.571 161.878,-284.244 152.347,-279.617 151.542,-286.571"/>
<text text-anchor="middle" x="57.0626" y="-198.3" font-family="Times,serif" font-size="14.00">✉ Invoice expired</text>
</g>
<!-- completed -->
<g id="node6" class="node"><title>completed</title>
<polygon fill="none" stroke="black" points="167.063,-36 24.0626,-36 24.0626,-0 167.063,-0 167.063,-36"/>
<text text-anchor="middle" x="95.5626" y="-14.3" font-family="Times,serif" font-size="14.00">Registration completed</text>
</g>
<!-- invoice&#45;&gt;completed -->
<g id="edge9" class="edge"><title>invoice&#45;&gt;completed</title>
<path fill="none" stroke="green" d="M95.5626,-91.6471C95.5626,-78.8228 95.5626,-61.1075 95.5626,-46.3815"/>
<polygon fill="green" stroke="green" points="99.0627,-46.2996 95.5626,-36.2996 92.0627,-46.2997 99.0627,-46.2996"/>
<text text-anchor="middle" x="136.563" y="-57.8" font-family="Times,serif" font-size="14.00">✉ Paid invoice</text>
</g>
</g>
</svg>
