<?xml version="1.0" encoding="UTF-8" standalone="no"?>
<!DOCTYPE svg PUBLIC "-//W3C//DTD SVG 1.1//EN"
 "http://www.w3.org/Graphics/SVG/1.1/DTD/svg11.dtd">
<!-- Generated by graphviz version 2.38.0 (20140413.2041)
 -->
<!-- Title: waitlist Pages: 1 -->
<svg width="512pt" height="474pt"
 viewBox="0.00 0.00 511.79 473.89" xmlns="http://www.w3.org/2000/svg" xmlns:xlink="http://www.w3.org/1999/xlink">
<g id="graph0" class="graph" transform="scale(1 1) rotate(0) translate(4 469.89)">
<title>waitlist</title>
<polygon fill="white" stroke="none" points="-4,4 -4,-469.89 507.787,-469.89 507.787,4 -4,4"/>
<!-- key -->
<g id="node1" class="node"><title>key</title>
<polygon fill="none" stroke="black" points="273,-429.945 132,-429.945 132,-393.945 273,-393.945 273,-429.945"/>
<text text-anchor="start" x="145.5" y="-415.745" font-family="Times,serif" font-size="14.00"> &#160;&#160;&#160;</text>
<text text-anchor="start" x="161.5" y="-415.745" font-family="Times,serif" font-size="14.00" fill="blue">Actions by admin</text>
<text text-anchor="start" x="140" y="-401.745" font-family="Times,serif" font-size="14.00"> &#160;&#160;&#160;</text>
<text text-anchor="start" x="156" y="-401.745" font-family="Times,serif" font-size="14.00" fill="green">Actions by attendee</text>
</g>
<!-- start -->
<g id="node2" class="node"><title>start</title>
<ellipse fill="none" stroke="black" cx="344.5" cy="-411.945" rx="53.8905" ry="53.8905"/>
<text text-anchor="middle" x="344.5" y="-408.245" font-family="Times,serif" font-size="14.00">Registration</text>
</g>
<!-- waitlist -->
<g id="node3" class="node"><title>waitlist</title>
<polygon fill="none" stroke="black" points="240,-307 163,-307 163,-271 240,-271 240,-307"/>
<text text-anchor="middle" x="201.5" y="-285.3" font-family="Times,serif" font-size="14.00">On waitlist</text>
</g>
<!-- start&#45;&gt;waitlist -->
<g id="edge1" class="edge"><title>start&#45;&gt;waitlist</title>
<path fill="none" stroke="green" d="M303.854,-376.151C296.745,-370.09 289.414,-363.854 282.5,-358 265.078,-343.249 245.474,-326.787 229.916,-313.755"/>
<polygon fill="green" stroke="green" points="232.096,-311.016 222.181,-307.281 227.602,-316.384 232.096,-311.016"/>
<text text-anchor="middle" x="309" y="-328.8" font-family="Times,serif" font-size="14.00">✉ Sign up on WL</text>
</g>
<!-- deleted -->
<g id="node7" class="node"><title>deleted</title>
<polygon fill="none" stroke="black" points="359.5,-133 215.425,-98.5 503.575,-98.5 359.5,-133"/>
<text text-anchor="middle" x="359.5" y="-106.3" font-family="Times,serif" font-size="14.00">Waitlist canceled</text>
</g>
<!-- start&#45;&gt;deleted -->
<g id="edge2" class="edge"><title>start&#45;&gt;deleted</title>
<path fill="none" stroke="green" d="M368.008,-363.225C382.303,-328.899 396.862,-281.229 391.5,-238 387.318,-204.285 377.117,-166.663 369.347,-141.18"/>
<polygon fill="green" stroke="green" points="372.611,-139.888 366.297,-131.38 365.927,-141.969 372.611,-139.888"/>
<text text-anchor="middle" x="442.5" y="-241.8" font-family="Times,serif" font-size="14.00">No interest in WL</text>
</g>
<!-- offer -->
<g id="node4" class="node"><title>offer</title>
<polygon fill="none" stroke="black" points="246.5,-220 166.5,-220 166.5,-184 246.5,-184 246.5,-220"/>
<text text-anchor="middle" x="206.5" y="-198.3" font-family="Times,serif" font-size="14.00">Offer made</text>
</g>
<!-- waitlist&#45;&gt;offer -->
<g id="edge3" class="edge"><title>waitlist&#45;&gt;offer</title>
<path fill="none" stroke="blue" d="M162.668,-284.997C119.999,-280.159 60.3751,-267.931 83.5,-238 102.877,-212.92 122.042,-228.761 152.5,-220 153.917,-219.592 155.353,-219.174 156.801,-218.748"/>
<polygon fill="blue" stroke="blue" points="157.891,-222.075 166.463,-215.848 155.879,-215.371 157.891,-222.075"/>
<text text-anchor="middle" x="131.5" y="-241.8" font-family="Times,serif" font-size="14.00">✉ Offer extended</text>
</g>
<!-- offer&#45;&gt;waitlist -->
<g id="edge4" class="edge"><title>offer&#45;&gt;waitlist</title>
<path fill="none" stroke="black" d="M204.226,-220.061C203.553,-225.755 202.892,-232.142 202.5,-238 202.009,-245.334 201.733,-253.285 201.584,-260.643"/>
<polygon fill="black" stroke="black" points="198.081,-260.812 201.446,-270.858 205.081,-260.907 198.081,-260.812"/>
<text text-anchor="middle" x="246.5" y="-241.8" font-family="Times,serif" font-size="14.00">✉ Offer expired</text>
</g>
<!-- offer&#45;&gt;waitlist -->
<g id="edge5" class="edge"><title>offer&#45;&gt;waitlist</title>
<path fill="none" stroke="blue" d="M246.572,-211.183C274.561,-218.865 304.594,-232.312 290.5,-253 281.133,-266.749 265.463,-275.097 249.86,-280.166"/>
<polygon fill="blue" stroke="blue" points="248.867,-276.81 240.21,-282.917 250.786,-283.541 248.867,-276.81"/>
<text text-anchor="middle" x="340.5" y="-241.8" font-family="Times,serif" font-size="14.00">✉ Offer canceled</text>
</g>
<!-- invoice -->
<g id="node5" class="node"><title>invoice</title>
<polygon fill="none" stroke="black" points="128,-128 15,-128 15,-92 128,-92 128,-128"/>
<text text-anchor="middle" x="71.5" y="-106.3" font-family="Times,serif" font-size="14.00">Invoice generated</text>
</g>
<!-- offer&#45;&gt;invoice -->
<g id="edge7" class="edge"><title>offer&#45;&gt;invoice</title>
<path fill="none" stroke="green" d="M180.79,-183.86C159.489,-169.66 129.036,-149.357 105.683,-133.789"/>
<polygon fill="green" stroke="green" points="107.376,-130.711 97.1145,-128.076 103.494,-136.536 107.376,-130.711"/>
<text text-anchor="middle" x="189.5" y="-154.8" font-family="Times,serif" font-size="14.00">Accepted spot</text>
</g>
<!-- offer&#45;&gt;deleted -->
<g id="edge6" class="edge"><title>offer&#45;&gt;deleted</title>
<path fill="none" stroke="green" d="M235.638,-183.86C260.799,-169.06 297.228,-147.63 324.07,-131.841"/>
<polygon fill="green" stroke="green" points="325.93,-134.808 332.775,-126.721 322.381,-128.774 325.93,-134.808"/>
<text text-anchor="middle" x="325.5" y="-154.8" font-family="Times,serif" font-size="14.00">Declined spot</text>
</g>
<!-- invoice&#45;&gt;waitlist -->
<g id="edge9" class="edge"><title>invoice&#45;&gt;waitlist</title>
<path fill="none" stroke="black" d="M64.7193,-128.391C54.0105,-159.118 37.8388,-222.624 73.5,-253 95.4854,-271.727 126.632,-280.506 152.696,-284.59"/>
<polygon fill="black" stroke="black" points="152.389,-288.08 162.774,-285.98 153.346,-281.146 152.389,-288.08"/>
<text text-anchor="middle" x="103" y="-198.3" font-family="Times,serif" font-size="14.00">✉ Invoice expired</text>
</g>
<!-- completed -->
<g id="node6" class="node"><title>completed</title>
<polygon fill="none" stroke="black" points="143,-36 0,-36 0,-0 143,-0 143,-36"/>
<text text-anchor="middle" x="71.5" y="-14.3" font-family="Times,serif" font-size="14.00">Registration completed</text>
</g>
<!-- invoice&#45;&gt;completed -->
<g id="edge8" class="edge"><title>invoice&#45;&gt;completed</title>
<path fill="none" stroke="green" d="M71.5,-91.6471C71.5,-78.8228 71.5,-61.1075 71.5,-46.3815"/>
<polygon fill="green" stroke="green" points="75.0001,-46.2996 71.5,-36.2996 68.0001,-46.2997 75.0001,-46.2996"/>
<text text-anchor="middle" x="112.5" y="-57.8" font-family="Times,serif" font-size="14.00">✉ Paid invoice</text>
</g>
</g>
</svg>
